<?xml version="1.0" encoding="UTF-8" standalone="no"?>
<!DOCTYPE svg PUBLIC "-//W3C//DTD SVG 1.1//EN"
 "http://www.w3.org/Graphics/SVG/1.1/DTD/svg11.dtd">
<!-- Generated by graphviz version 2.38.0 (20140413.2041)
 -->
<!-- Title: PhysiK::VolumeConstraint Pages: 1 -->
<svg width="140pt" height="215pt"
 viewBox="0.00 0.00 140.00 215.00" xmlns="http://www.w3.org/2000/svg" xmlns:xlink="http://www.w3.org/1999/xlink">
<g id="graph0" class="graph" transform="scale(1 1) rotate(0) translate(4 211)">
<title>PhysiK::VolumeConstraint</title>
<!-- Node1 -->
<g id="node1" class="node"><title>Node1</title>
<polygon fill="#bfbfbf" stroke="black" points="0,-0.5 0,-79.5 132,-79.5 132,-0.5 0,-0.5"/>
<text text-anchor="middle" x="66" y="-67.5" font-family="Helvetica,sans-Serif" font-size="10.00">PhysiK::VolumeConstraint</text>
<polyline fill="none" stroke="black" points="0,-60.5 132,-60.5 "/>
<text text-anchor="start" x="8" y="-48.5" font-family="Helvetica,sans-Serif" font-size="10.00">&#45; delta</text>
<polyline fill="none" stroke="black" points="0,-41.5 132,-41.5 "/>
<text text-anchor="start" x="8" y="-29.5" font-family="Helvetica,sans-Serif" font-size="10.00">+ addVolume()</text>
<text text-anchor="start" x="8" y="-18.5" font-family="Helvetica,sans-Serif" font-size="10.00">+ volume()</text>
<text text-anchor="start" x="8" y="-7.5" font-family="Helvetica,sans-Serif" font-size="10.00">+ eval()</text>
</g>
<!-- Node2 -->
<g id="node2" class="node"><title>Node2</title>
<g id="a_node2"><a xlink:href="classPhysiK_1_1Constraint.html" target="_top" xlink:title="Compute the constraint (see 1st report) to apply to the list of vertices. ">
<polygon fill="none" stroke="black" points="16.5,-116.5 16.5,-206.5 115.5,-206.5 115.5,-116.5 16.5,-116.5"/>
<text text-anchor="middle" x="66" y="-194.5" font-family="Helvetica,sans-Serif" font-size="10.00">PhysiK::Constraint</text>
<polyline fill="none" stroke="black" points="16.5,-187.5 115.5,-187.5 "/>
<text text-anchor="start" x="24.5" y="-175.5" font-family="Helvetica,sans-Serif" font-size="10.00">&#45; positions</text>
<polyline fill="none" stroke="black" points="16.5,-168.5 115.5,-168.5 "/>
<text text-anchor="start" x="24.5" y="-156.5" font-family="Helvetica,sans-Serif" font-size="10.00">+ eval()</text>
<text text-anchor="start" x="24.5" y="-145.5" font-family="Helvetica,sans-Serif" font-size="10.00">+ grad()</text>
<text text-anchor="start" x="24.5" y="-134.5" font-family="Helvetica,sans-Serif" font-size="10.00">+ lambda()</text>
<text text-anchor="start" x="24.5" y="-123.5" font-family="Helvetica,sans-Serif" font-size="10.00">+ ~Constraint()</text>
</a>
</g>
</g>
<!-- Node2&#45;&gt;Node1 -->
<g id="edge1" class="edge"><title>Node2&#45;&gt;Node1</title>
<path fill="none" stroke="midnightblue" d="M66,-106.079C66,-97.234 66,-88.2325 66,-79.8576"/>
<polygon fill="none" stroke="midnightblue" points="62.5001,-106.342 66,-116.342 69.5001,-106.342 62.5001,-106.342"/>
</g>
</g>
</svg>
