<?xml version="1.0" encoding="UTF-8" standalone="no"?>
<!DOCTYPE svg PUBLIC "-//W3C//DTD SVG 1.1//EN"
 "http://www.w3.org/Graphics/SVG/1.1/DTD/svg11.dtd">
<!-- Generated by graphviz version 2.38.0 (20140413.2041)
 -->
<!-- Title: PhysiK::IntersectionParticleTriangle Pages: 1 -->
<svg width="385pt" height="1069pt"
 viewBox="0.00 0.00 385.00 1069.00" xmlns="http://www.w3.org/2000/svg" xmlns:xlink="http://www.w3.org/1999/xlink">
<g id="graph0" class="graph" transform="scale(1 1) rotate(0) translate(4 1065)">
<title>PhysiK::IntersectionParticleTriangle</title>
<!-- Node1 -->
<g id="node1" class="node"><title>Node1</title>
<polygon fill="#bfbfbf" stroke="black" points="0,-0.5 0,-112.5 150,-112.5 150,-0.5 0,-0.5"/>
<text text-anchor="start" x="8" y="-100.5" font-family="Helvetica,sans-Serif" font-size="10.00">PhysiK::IntersectionParticle</text>
<text text-anchor="middle" x="75" y="-89.5" font-family="Helvetica,sans-Serif" font-size="10.00">Triangle</text>
<polyline fill="none" stroke="black" points="0,-82.5 150,-82.5 "/>
<text text-anchor="start" x="8" y="-70.5" font-family="Helvetica,sans-Serif" font-size="10.00">&#45; triangle</text>
<text text-anchor="start" x="8" y="-59.5" font-family="Helvetica,sans-Serif" font-size="10.00">&#45; size</text>
<polyline fill="none" stroke="black" points="0,-52.5 150,-52.5 "/>
<text text-anchor="start" x="8" y="-40.5" font-family="Helvetica,sans-Serif" font-size="10.00">+ IntersectionParticleTriangle()</text>
<text text-anchor="start" x="8" y="-29.5" font-family="Helvetica,sans-Serif" font-size="10.00">+ intersect()</text>
<text text-anchor="start" x="8" y="-18.5" font-family="Helvetica,sans-Serif" font-size="10.00">+ intersect()</text>
<text text-anchor="start" x="8" y="-7.5" font-family="Helvetica,sans-Serif" font-size="10.00">+ getConstraint()</text>
</g>
<!-- Node2 -->
<g id="node2" class="node"><title>Node2</title>
<g id="a_node2"><a xlink:href="classPhysiK_1_1Particle.html" target="_top" xlink:title="The Particle class. ">
<polygon fill="none" stroke="black" points="102.5,-579.5 102.5,-647.5 189.5,-647.5 189.5,-579.5 102.5,-579.5"/>
<text text-anchor="middle" x="146" y="-635.5" font-family="Helvetica,sans-Serif" font-size="10.00">PhysiK::Particle</text>
<polyline fill="none" stroke="black" points="102.5,-628.5 189.5,-628.5 "/>
<text text-anchor="start" x="110.5" y="-616.5" font-family="Helvetica,sans-Serif" font-size="10.00">+ omega</text>
<polyline fill="none" stroke="black" points="102.5,-609.5 189.5,-609.5 "/>
<text text-anchor="start" x="110.5" y="-597.5" font-family="Helvetica,sans-Serif" font-size="10.00">+ Particle()</text>
<text text-anchor="start" x="110.5" y="-586.5" font-family="Helvetica,sans-Serif" font-size="10.00">+ Particle()</text>
</a>
</g>
</g>
<!-- Node2&#45;&gt;Node1 -->
<g id="edge1" class="edge"><title>Node2&#45;&gt;Node1</title>
<path fill="none" stroke="#404040" d="M102.182,-585.909C84.0027,-572.285 64.8768,-553.924 55,-532 -5.48969,-397.729 28.1634,-219.841 54.0381,-124.559"/>
<polygon fill="none" stroke="#404040" points="54.0938,-124.359 51.8467,-117.507 57.3074,-112.797 59.5545,-119.649 54.0938,-124.359"/>
<text text-anchor="middle" x="42" y="-316" font-family="Helvetica,sans-Serif" font-size="10.00"> &#45;particle</text>
</g>
<!-- Node5 -->
<g id="node5" class="node"><title>Node5</title>
<g id="a_node5"><a xlink:href="classPhysiK_1_1PhysicObject.html" target="_top" xlink:title="Internal representation of an object. ">
<polygon fill="none" stroke="black" points="171.5,-342.5 171.5,-531.5 284.5,-531.5 284.5,-342.5 171.5,-342.5"/>
<text text-anchor="middle" x="228" y="-519.5" font-family="Helvetica,sans-Serif" font-size="10.00">PhysiK::PhysicObject</text>
<polyline fill="none" stroke="black" points="171.5,-512.5 284.5,-512.5 "/>
<text text-anchor="start" x="179.5" y="-500.5" font-family="Helvetica,sans-Serif" font-size="10.00">+ nbParticles</text>
<text text-anchor="start" x="179.5" y="-489.5" font-family="Helvetica,sans-Serif" font-size="10.00">+ isKinematic</text>
<text text-anchor="start" x="179.5" y="-478.5" font-family="Helvetica,sans-Serif" font-size="10.00">&#45; hasBeenAllocated</text>
<polyline fill="none" stroke="black" points="171.5,-471.5 284.5,-471.5 "/>
<text text-anchor="start" x="179.5" y="-459.5" font-family="Helvetica,sans-Serif" font-size="10.00">+ getPositions()</text>
<text text-anchor="start" x="179.5" y="-448.5" font-family="Helvetica,sans-Serif" font-size="10.00">+ getOldPositions()</text>
<text text-anchor="start" x="179.5" y="-437.5" font-family="Helvetica,sans-Serif" font-size="10.00">+ getDeltaP()</text>
<text text-anchor="start" x="179.5" y="-426.5" font-family="Helvetica,sans-Serif" font-size="10.00">+ preUpdate()</text>
<text text-anchor="start" x="179.5" y="-415.5" font-family="Helvetica,sans-Serif" font-size="10.00">+ postUpdate()</text>
<text text-anchor="start" x="179.5" y="-404.5" font-family="Helvetica,sans-Serif" font-size="10.00">+ ~PhysicObject()</text>
<text text-anchor="start" x="179.5" y="-393.5" font-family="Helvetica,sans-Serif" font-size="10.00">&#45; PhysicObject()</text>
<text text-anchor="start" x="179.5" y="-382.5" font-family="Helvetica,sans-Serif" font-size="10.00">&#45; PhysicObject()</text>
<text text-anchor="start" x="179.5" y="-371.5" font-family="Helvetica,sans-Serif" font-size="10.00">&#45; operator=()</text>
<text text-anchor="start" x="179.5" y="-360.5" font-family="Helvetica,sans-Serif" font-size="10.00">&#45; PhysicObject()</text>
<text text-anchor="start" x="179.5" y="-349.5" font-family="Helvetica,sans-Serif" font-size="10.00">&#45; PhysicObject()</text>
</a>
</g>
</g>
<!-- Node2&#45;&gt;Node5 -->
<g id="edge6" class="edge"><title>Node2&#45;&gt;Node5</title>
<path fill="none" stroke="#404040" d="M157.252,-579.412C160.761,-569.82 164.816,-559.401 169,-550 170.089,-547.553 171.208,-545.085 172.352,-542.604"/>
<polygon fill="none" stroke="#404040" points="172.393,-542.517 171.332,-535.385 177.509,-531.663 178.569,-538.795 172.393,-542.517"/>
<text text-anchor="middle" x="190.5" y="-553" font-family="Helvetica,sans-Serif" font-size="10.00"> &#45;particles</text>
</g>
<!-- Node3 -->
<g id="node3" class="node"><title>Node3</title>
<g id="a_node3"><a xlink:href="classPhysiK_1_1vec3.html" target="_top" xlink:title="A vertex. ">
<polygon fill="none" stroke="black" points="179,-717.5 179,-1060.5 273,-1060.5 273,-717.5 179,-717.5"/>
<text text-anchor="middle" x="226" y="-1048.5" font-family="Helvetica,sans-Serif" font-size="10.00">PhysiK::vec3</text>
<polyline fill="none" stroke="black" points="179,-1041.5 273,-1041.5 "/>
<text text-anchor="start" x="187" y="-1029.5" font-family="Helvetica,sans-Serif" font-size="10.00">+ x</text>
<text text-anchor="start" x="187" y="-1018.5" font-family="Helvetica,sans-Serif" font-size="10.00">+ y</text>
<text text-anchor="start" x="187" y="-1007.5" font-family="Helvetica,sans-Serif" font-size="10.00">+ z</text>
<text text-anchor="start" x="187" y="-996.5" font-family="Helvetica,sans-Serif" font-size="10.00">+ voxelSize</text>
<polyline fill="none" stroke="black" points="179,-989.5 273,-989.5 "/>
<text text-anchor="start" x="187" y="-977.5" font-family="Helvetica,sans-Serif" font-size="10.00">+ vec3()</text>
<text text-anchor="start" x="187" y="-966.5" font-family="Helvetica,sans-Serif" font-size="10.00">+ operator()()</text>
<text text-anchor="start" x="187" y="-955.5" font-family="Helvetica,sans-Serif" font-size="10.00">+ operator[]()</text>
<text text-anchor="start" x="187" y="-944.5" font-family="Helvetica,sans-Serif" font-size="10.00">+ operator[]()</text>
<text text-anchor="start" x="187" y="-933.5" font-family="Helvetica,sans-Serif" font-size="10.00">+ operator*()</text>
<text text-anchor="start" x="187" y="-922.5" font-family="Helvetica,sans-Serif" font-size="10.00">+ operator*=()</text>
<text text-anchor="start" x="187" y="-911.5" font-family="Helvetica,sans-Serif" font-size="10.00">+ operator+()</text>
<text text-anchor="start" x="187" y="-900.5" font-family="Helvetica,sans-Serif" font-size="10.00">+ operator+()</text>
<text text-anchor="start" x="187" y="-889.5" font-family="Helvetica,sans-Serif" font-size="10.00">+ operator+=()</text>
<text text-anchor="start" x="187" y="-878.5" font-family="Helvetica,sans-Serif" font-size="10.00">+ operator&#45;=()</text>
<text text-anchor="start" x="187" y="-867.5" font-family="Helvetica,sans-Serif" font-size="10.00">+ operator/()</text>
<text text-anchor="start" x="187" y="-856.5" font-family="Helvetica,sans-Serif" font-size="10.00">+ operator/=()</text>
<text text-anchor="start" x="187" y="-845.5" font-family="Helvetica,sans-Serif" font-size="10.00">+ operator&#45;()</text>
<text text-anchor="start" x="187" y="-834.5" font-family="Helvetica,sans-Serif" font-size="10.00">+ operator==()</text>
<text text-anchor="start" x="187" y="-823.5" font-family="Helvetica,sans-Serif" font-size="10.00">+ operator&#45;()</text>
<text text-anchor="start" x="187" y="-812.5" font-family="Helvetica,sans-Serif" font-size="10.00">+ length()</text>
<text text-anchor="start" x="187" y="-801.5" font-family="Helvetica,sans-Serif" font-size="10.00">+ lengthSquared()</text>
<text text-anchor="start" x="187" y="-790.5" font-family="Helvetica,sans-Serif" font-size="10.00">+ normalize()</text>
<text text-anchor="start" x="187" y="-779.5" font-family="Helvetica,sans-Serif" font-size="10.00">+ cross()</text>
<text text-anchor="start" x="187" y="-768.5" font-family="Helvetica,sans-Serif" font-size="10.00">+ dot()</text>
<text text-anchor="start" x="187" y="-757.5" font-family="Helvetica,sans-Serif" font-size="10.00">+ toVoxel()</text>
<text text-anchor="start" x="187" y="-746.5" font-family="Helvetica,sans-Serif" font-size="10.00">+ toWorld()</text>
<text text-anchor="start" x="187" y="-735.5" font-family="Helvetica,sans-Serif" font-size="10.00">+ center()</text>
<text text-anchor="start" x="187" y="-724.5" font-family="Helvetica,sans-Serif" font-size="10.00">+ print()</text>
</a>
</g>
</g>
<!-- Node3&#45;&gt;Node2 -->
<g id="edge2" class="edge"><title>Node3&#45;&gt;Node2</title>
<path fill="none" stroke="#404040" d="M178.985,-750.454C173.652,-733.213 168.519,-715.754 164,-699 160.567,-686.27 157.369,-672.318 154.649,-659.486"/>
<polygon fill="none" stroke="#404040" points="154.622,-659.354 149.492,-654.286 152.197,-647.602 157.327,-652.669 154.622,-659.354"/>
<text text-anchor="middle" x="188" y="-691" font-family="Helvetica,sans-Serif" font-size="10.00"> +pos</text>
<text text-anchor="middle" x="188" y="-680" font-family="Helvetica,sans-Serif" font-size="10.00">+velocity</text>
<text text-anchor="middle" x="188" y="-669" font-family="Helvetica,sans-Serif" font-size="10.00">+impulsion</text>
</g>
<!-- Node4 -->
<g id="node4" class="node"><title>Node4</title>
<g id="a_node4"><a xlink:href="classPhysiK_1_1Body.html" target="_top" xlink:title="Add topological informations to a body. ">
<polygon fill="none" stroke="black" points="102,-160.5 102,-294.5 218,-294.5 218,-160.5 102,-160.5"/>
<text text-anchor="middle" x="160" y="-282.5" font-family="Helvetica,sans-Serif" font-size="10.00">PhysiK::Body</text>
<polyline fill="none" stroke="black" points="102,-275.5 218,-275.5 "/>
<text text-anchor="start" x="110" y="-263.5" font-family="Helvetica,sans-Serif" font-size="10.00">+ nbTriangles</text>
<text text-anchor="start" x="110" y="-252.5" font-family="Helvetica,sans-Serif" font-size="10.00">+ mass</text>
<polyline fill="none" stroke="black" points="102,-245.5 218,-245.5 "/>
<text text-anchor="start" x="110" y="-233.5" font-family="Helvetica,sans-Serif" font-size="10.00">+ Body()</text>
<text text-anchor="start" x="110" y="-222.5" font-family="Helvetica,sans-Serif" font-size="10.00">+ ~Body()</text>
<text text-anchor="start" x="110" y="-211.5" font-family="Helvetica,sans-Serif" font-size="10.00">+ getTriangles()</text>
<text text-anchor="start" x="110" y="-200.5" font-family="Helvetica,sans-Serif" font-size="10.00">+ getTriangles()</text>
<text text-anchor="start" x="110" y="-189.5" font-family="Helvetica,sans-Serif" font-size="10.00">+ computeBarycenter()</text>
<text text-anchor="start" x="110" y="-178.5" font-family="Helvetica,sans-Serif" font-size="10.00">+ getParticlesGroup()</text>
<text text-anchor="start" x="110" y="-167.5" font-family="Helvetica,sans-Serif" font-size="10.00">+ getBarycenter()</text>
</a>
</g>
</g>
<!-- Node3&#45;&gt;Node4 -->
<g id="edge7" class="edge"><title>Node3&#45;&gt;Node4</title>
<path fill="none" stroke="#404040" d="M273.093,-778.005C314.559,-663.754 359.075,-482.401 294,-342 280.079,-311.964 253.858,-286.988 228.278,-268.184"/>
<polygon fill="none" stroke="#404040" points="227.952,-267.953 220.744,-267.754 218.155,-261.024 225.363,-261.223 227.952,-267.953"/>
<text text-anchor="middle" x="351" y="-553" font-family="Helvetica,sans-Serif" font-size="10.00"> &#45;barycenter</text>
</g>
<!-- Node3&#45;&gt;Node5 -->
<g id="edge5" class="edge"><title>Node3&#45;&gt;Node5</title>
<path fill="none" stroke="#404040" d="M226.759,-717.233C227.018,-658.996 227.3,-595.606 227.529,-543.964"/>
<polygon fill="none" stroke="#404040" points="227.53,-543.779 223.557,-537.762 227.583,-531.78 231.556,-537.797 227.53,-543.779"/>
<text text-anchor="middle" x="257" y="-611" font-family="Helvetica,sans-Serif" font-size="10.00"> &#45;oldPositions</text>
</g>
<!-- Node4&#45;&gt;Node1 -->
<g id="edge3" class="edge"><title>Node4&#45;&gt;Node1</title>
<path fill="none" stroke="#404040" d="M126.65,-160.192C120.596,-148.156 114.283,-135.603 108.232,-123.574"/>
<polygon fill="none" stroke="#404040" points="108.157,-123.424 101.888,-119.861 102.765,-112.704 109.035,-116.266 108.157,-123.424"/>
<text text-anchor="middle" x="135.5" y="-134" font-family="Helvetica,sans-Serif" font-size="10.00"> &#45;colider</text>
</g>
<!-- Node5&#45;&gt;Node4 -->
<g id="edge4" class="edge"><title>Node5&#45;&gt;Node4</title>
<path fill="none" stroke="midnightblue" d="M194.057,-332.422C189.832,-319.531 185.606,-306.636 181.64,-294.534"/>
<polygon fill="none" stroke="midnightblue" points="190.842,-333.854 197.283,-342.267 197.494,-331.674 190.842,-333.854"/>
</g>
<!-- Node6 -->
<g id="node6" class="node"><title>Node6</title>
<g id="a_node6"><a xlink:href="classPhysiK_1_1Triangle.html" target="_top" xlink:title="Contain a set of three vertex offset. ">
<polygon fill="none" stroke="black" points="64.5,-397.5 64.5,-476.5 153.5,-476.5 153.5,-397.5 64.5,-397.5"/>
<text text-anchor="middle" x="109" y="-464.5" font-family="Helvetica,sans-Serif" font-size="10.00">PhysiK::Triangle</text>
<polyline fill="none" stroke="black" points="64.5,-457.5 153.5,-457.5 "/>
<text text-anchor="start" x="72.5" y="-445.5" font-family="Helvetica,sans-Serif" font-size="10.00">&#45; VertexOffset</text>
<polyline fill="none" stroke="black" points="64.5,-438.5 153.5,-438.5 "/>
<text text-anchor="start" x="72.5" y="-426.5" font-family="Helvetica,sans-Serif" font-size="10.00">+ Triangle()</text>
<text text-anchor="start" x="72.5" y="-415.5" font-family="Helvetica,sans-Serif" font-size="10.00">+ operator[]()</text>
<text text-anchor="start" x="72.5" y="-404.5" font-family="Helvetica,sans-Serif" font-size="10.00">+ operator[]()</text>
</a>
</g>
</g>
<!-- Node6&#45;&gt;Node4 -->
<g id="edge8" class="edge"><title>Node6&#45;&gt;Node4</title>
<path fill="none" stroke="#404040" d="M118.473,-397.457C124.757,-371.892 133.224,-337.442 140.873,-306.32"/>
<polygon fill="none" stroke="#404040" points="140.894,-306.233 138.442,-299.452 143.759,-294.58 146.211,-301.361 140.894,-306.233"/>
<text text-anchor="middle" x="161.5" y="-316" font-family="Helvetica,sans-Serif" font-size="10.00"> &#45;triangles</text>
</g>
</g>
</svg>
