<?xml version="1.0" encoding="UTF-8" standalone="no"?>
<!DOCTYPE svg PUBLIC "-//W3C//DTD SVG 1.1//EN"
 "http://www.w3.org/Graphics/SVG/1.1/DTD/svg11.dtd">
<!-- Generated by graphviz version 2.38.0 (20140413.2041)
 -->
<!-- Title: PhysiK::PhysicObject Pages: 1 -->
<svg width="214pt" height="727pt"
 viewBox="0.00 0.00 214.00 727.00" xmlns="http://www.w3.org/2000/svg" xmlns:xlink="http://www.w3.org/1999/xlink">
<g id="graph0" class="graph" transform="scale(1 1) rotate(0) translate(4 723)">
<title>PhysiK::PhysicObject</title>
<!-- Node1 -->
<g id="node1" class="node"><title>Node1</title>
<polygon fill="#bfbfbf" stroke="black" points="0,-0.5 0,-189.5 113,-189.5 113,-0.5 0,-0.5"/>
<text text-anchor="middle" x="56.5" y="-177.5" font-family="Helvetica,sans-Serif" font-size="10.00">PhysiK::PhysicObject</text>
<polyline fill="none" stroke="black" points="0,-170.5 113,-170.5 "/>
<text text-anchor="start" x="8" y="-158.5" font-family="Helvetica,sans-Serif" font-size="10.00">+ nbParticles</text>
<text text-anchor="start" x="8" y="-147.5" font-family="Helvetica,sans-Serif" font-size="10.00">+ isKinematic</text>
<text text-anchor="start" x="8" y="-136.5" font-family="Helvetica,sans-Serif" font-size="10.00">&#45; hasBeenAllocated</text>
<polyline fill="none" stroke="black" points="0,-129.5 113,-129.5 "/>
<text text-anchor="start" x="8" y="-117.5" font-family="Helvetica,sans-Serif" font-size="10.00">+ getPositions()</text>
<text text-anchor="start" x="8" y="-106.5" font-family="Helvetica,sans-Serif" font-size="10.00">+ getOldPositions()</text>
<text text-anchor="start" x="8" y="-95.5" font-family="Helvetica,sans-Serif" font-size="10.00">+ getDeltaP()</text>
<text text-anchor="start" x="8" y="-84.5" font-family="Helvetica,sans-Serif" font-size="10.00">+ preUpdate()</text>
<text text-anchor="start" x="8" y="-73.5" font-family="Helvetica,sans-Serif" font-size="10.00">+ postUpdate()</text>
<text text-anchor="start" x="8" y="-62.5" font-family="Helvetica,sans-Serif" font-size="10.00">+ ~PhysicObject()</text>
<text text-anchor="start" x="8" y="-51.5" font-family="Helvetica,sans-Serif" font-size="10.00">&#45; PhysicObject()</text>
<text text-anchor="start" x="8" y="-40.5" font-family="Helvetica,sans-Serif" font-size="10.00">&#45; PhysicObject()</text>
<text text-anchor="start" x="8" y="-29.5" font-family="Helvetica,sans-Serif" font-size="10.00">&#45; operator=()</text>
<text text-anchor="start" x="8" y="-18.5" font-family="Helvetica,sans-Serif" font-size="10.00">&#45; PhysicObject()</text>
<text text-anchor="start" x="8" y="-7.5" font-family="Helvetica,sans-Serif" font-size="10.00">&#45; PhysicObject()</text>
</g>
<!-- Node2 -->
<g id="node2" class="node"><title>Node2</title>
<g id="a_node2"><a xlink:href="classPhysiK_1_1vec3.html" target="_top" xlink:title="A vertex. ">
<polygon fill="none" stroke="black" points="31.5,-375.5 31.5,-718.5 125.5,-718.5 125.5,-375.5 31.5,-375.5"/>
<text text-anchor="middle" x="78.5" y="-706.5" font-family="Helvetica,sans-Serif" font-size="10.00">PhysiK::vec3</text>
<polyline fill="none" stroke="black" points="31.5,-699.5 125.5,-699.5 "/>
<text text-anchor="start" x="39.5" y="-687.5" font-family="Helvetica,sans-Serif" font-size="10.00">+ x</text>
<text text-anchor="start" x="39.5" y="-676.5" font-family="Helvetica,sans-Serif" font-size="10.00">+ y</text>
<text text-anchor="start" x="39.5" y="-665.5" font-family="Helvetica,sans-Serif" font-size="10.00">+ z</text>
<text text-anchor="start" x="39.5" y="-654.5" font-family="Helvetica,sans-Serif" font-size="10.00">+ voxelSize</text>
<polyline fill="none" stroke="black" points="31.5,-647.5 125.5,-647.5 "/>
<text text-anchor="start" x="39.5" y="-635.5" font-family="Helvetica,sans-Serif" font-size="10.00">+ vec3()</text>
<text text-anchor="start" x="39.5" y="-624.5" font-family="Helvetica,sans-Serif" font-size="10.00">+ operator()()</text>
<text text-anchor="start" x="39.5" y="-613.5" font-family="Helvetica,sans-Serif" font-size="10.00">+ operator[]()</text>
<text text-anchor="start" x="39.5" y="-602.5" font-family="Helvetica,sans-Serif" font-size="10.00">+ operator[]()</text>
<text text-anchor="start" x="39.5" y="-591.5" font-family="Helvetica,sans-Serif" font-size="10.00">+ operator*()</text>
<text text-anchor="start" x="39.5" y="-580.5" font-family="Helvetica,sans-Serif" font-size="10.00">+ operator*=()</text>
<text text-anchor="start" x="39.5" y="-569.5" font-family="Helvetica,sans-Serif" font-size="10.00">+ operator+()</text>
<text text-anchor="start" x="39.5" y="-558.5" font-family="Helvetica,sans-Serif" font-size="10.00">+ operator+()</text>
<text text-anchor="start" x="39.5" y="-547.5" font-family="Helvetica,sans-Serif" font-size="10.00">+ operator+=()</text>
<text text-anchor="start" x="39.5" y="-536.5" font-family="Helvetica,sans-Serif" font-size="10.00">+ operator&#45;=()</text>
<text text-anchor="start" x="39.5" y="-525.5" font-family="Helvetica,sans-Serif" font-size="10.00">+ operator/()</text>
<text text-anchor="start" x="39.5" y="-514.5" font-family="Helvetica,sans-Serif" font-size="10.00">+ operator/=()</text>
<text text-anchor="start" x="39.5" y="-503.5" font-family="Helvetica,sans-Serif" font-size="10.00">+ operator&#45;()</text>
<text text-anchor="start" x="39.5" y="-492.5" font-family="Helvetica,sans-Serif" font-size="10.00">+ operator==()</text>
<text text-anchor="start" x="39.5" y="-481.5" font-family="Helvetica,sans-Serif" font-size="10.00">+ operator&#45;()</text>
<text text-anchor="start" x="39.5" y="-470.5" font-family="Helvetica,sans-Serif" font-size="10.00">+ length()</text>
<text text-anchor="start" x="39.5" y="-459.5" font-family="Helvetica,sans-Serif" font-size="10.00">+ lengthSquared()</text>
<text text-anchor="start" x="39.5" y="-448.5" font-family="Helvetica,sans-Serif" font-size="10.00">+ normalize()</text>
<text text-anchor="start" x="39.5" y="-437.5" font-family="Helvetica,sans-Serif" font-size="10.00">+ cross()</text>
<text text-anchor="start" x="39.5" y="-426.5" font-family="Helvetica,sans-Serif" font-size="10.00">+ dot()</text>
<text text-anchor="start" x="39.5" y="-415.5" font-family="Helvetica,sans-Serif" font-size="10.00">+ toVoxel()</text>
<text text-anchor="start" x="39.5" y="-404.5" font-family="Helvetica,sans-Serif" font-size="10.00">+ toWorld()</text>
<text text-anchor="start" x="39.5" y="-393.5" font-family="Helvetica,sans-Serif" font-size="10.00">+ center()</text>
<text text-anchor="start" x="39.5" y="-382.5" font-family="Helvetica,sans-Serif" font-size="10.00">+ print()</text>
</a>
</g>
</g>
<!-- Node2&#45;&gt;Node1 -->
<g id="edge1" class="edge"><title>Node2&#45;&gt;Node1</title>
<path fill="none" stroke="#404040" d="M56.1351,-375.447C53.8021,-352.147 51.8086,-328.51 50.5,-306 48.7202,-275.385 49.848,-267.66 50.5,-237 50.7417,-225.637 51.0927,-213.763 51.5056,-201.935"/>
<polygon fill="none" stroke="#404040" points="51.5163,-201.642 47.739,-195.5 51.9563,-189.65 55.7336,-195.793 51.5163,-201.642"/>
<text text-anchor="middle" x="80.5" y="-269" font-family="Helvetica,sans-Serif" font-size="10.00"> &#45;oldPositions</text>
</g>
<!-- Node3 -->
<g id="node3" class="node"><title>Node3</title>
<g id="a_node3"><a xlink:href="classPhysiK_1_1Particle.html" target="_top" xlink:title="The Particle class. ">
<polygon fill="none" stroke="black" points="119,-237.5 119,-305.5 206,-305.5 206,-237.5 119,-237.5"/>
<text text-anchor="middle" x="162.5" y="-293.5" font-family="Helvetica,sans-Serif" font-size="10.00">PhysiK::Particle</text>
<polyline fill="none" stroke="black" points="119,-286.5 206,-286.5 "/>
<text text-anchor="start" x="127" y="-274.5" font-family="Helvetica,sans-Serif" font-size="10.00">+ omega</text>
<polyline fill="none" stroke="black" points="119,-267.5 206,-267.5 "/>
<text text-anchor="start" x="127" y="-255.5" font-family="Helvetica,sans-Serif" font-size="10.00">+ Particle()</text>
<text text-anchor="start" x="127" y="-244.5" font-family="Helvetica,sans-Serif" font-size="10.00">+ Particle()</text>
</a>
</g>
</g>
<!-- Node2&#45;&gt;Node3 -->
<g id="edge3" class="edge"><title>Node2&#45;&gt;Node3</title>
<path fill="none" stroke="#404040" d="M125.534,-392.859C134.035,-365.18 142.257,-338.41 148.779,-317.173"/>
<polygon fill="none" stroke="#404040" points="148.792,-317.131 146.73,-310.221 152.316,-305.66 154.378,-312.57 148.792,-317.131"/>
<text text-anchor="middle" x="169.5" y="-349" font-family="Helvetica,sans-Serif" font-size="10.00"> +pos</text>
<text text-anchor="middle" x="169.5" y="-338" font-family="Helvetica,sans-Serif" font-size="10.00">+velocity</text>
<text text-anchor="middle" x="169.5" y="-327" font-family="Helvetica,sans-Serif" font-size="10.00">+impulsion</text>
</g>
<!-- Node3&#45;&gt;Node1 -->
<g id="edge2" class="edge"><title>Node3&#45;&gt;Node1</title>
<path fill="none" stroke="#404040" d="M142.313,-237.267C135.563,-226.156 127.644,-213.119 119.393,-199.535"/>
<polygon fill="none" stroke="#404040" points="119.262,-199.32 112.728,-196.269 113.032,-189.064 119.566,-192.116 119.262,-199.32"/>
<text text-anchor="middle" x="152" y="-211" font-family="Helvetica,sans-Serif" font-size="10.00"> &#45;particles</text>
</g>
</g>
</svg>
