<?xml version="1.0" encoding="UTF-8" standalone="no"?>
<!DOCTYPE svg PUBLIC "-//W3C//DTD SVG 1.1//EN"
 "http://www.w3.org/Graphics/SVG/1.1/DTD/svg11.dtd">
<!-- Generated by graphviz version 2.38.0 (20140413.2041)
 -->
<!-- Title: PhysiK::ParticleHashTable Pages: 1 -->
<svg width="142pt" height="204pt"
 viewBox="0.00 0.00 142.00 204.00" xmlns="http://www.w3.org/2000/svg" xmlns:xlink="http://www.w3.org/1999/xlink">
<g id="graph0" class="graph" transform="scale(1 1) rotate(0) translate(4 200)">
<title>PhysiK::ParticleHashTable</title>
<!-- Node1 -->
<g id="node1" class="node"><title>Node1</title>
<polygon fill="#bfbfbf" stroke="black" points="0,-0.5 0,-90.5 134,-90.5 134,-0.5 0,-0.5"/>
<text text-anchor="middle" x="67" y="-78.5" font-family="Helvetica,sans-Serif" font-size="10.00">PhysiK::ParticleHashTable</text>
<polyline fill="none" stroke="black" points="0,-71.5 134,-71.5 "/>
<text text-anchor="middle" x="67" y="-59.5" font-family="Helvetica,sans-Serif" font-size="10.00"> </text>
<polyline fill="none" stroke="black" points="0,-52.5 134,-52.5 "/>
<text text-anchor="start" x="8" y="-40.5" font-family="Helvetica,sans-Serif" font-size="10.00">+ addObject()</text>
<text text-anchor="start" x="8" y="-29.5" font-family="Helvetica,sans-Serif" font-size="10.00">+ generateIntersection()</text>
<text text-anchor="start" x="8" y="-18.5" font-family="Helvetica,sans-Serif" font-size="10.00">+ generateIntersectionWith</text>
<text text-anchor="start" x="8" y="-7.5" font-family="Helvetica,sans-Serif" font-size="10.00">Triangles()</text>
</g>
<!-- Node2 -->
<g id="node2" class="node"><title>Node2</title>
<g id="a_node2"><a xlink:href="classPhysiK_1_1HashTable.html" target="_top" xlink:title="{PhysiK::HashTable\&lt;\l ParticleGroup \&gt;\n|&#45; voxelGrid\l|+ clear()\l}">
<polygon fill="none" stroke="black" points="13.5,-127.5 13.5,-195.5 120.5,-195.5 120.5,-127.5 13.5,-127.5"/>
<text text-anchor="start" x="21.5" y="-183.5" font-family="Helvetica,sans-Serif" font-size="10.00">PhysiK::HashTable&lt;</text>
<text text-anchor="middle" x="67" y="-172.5" font-family="Helvetica,sans-Serif" font-size="10.00"> ParticleGroup &gt;</text>
<polyline fill="none" stroke="black" points="13.5,-165.5 120.5,-165.5 "/>
<text text-anchor="start" x="21.5" y="-153.5" font-family="Helvetica,sans-Serif" font-size="10.00">&#45; voxelGrid</text>
<polyline fill="none" stroke="black" points="13.5,-146.5 120.5,-146.5 "/>
<text text-anchor="start" x="21.5" y="-134.5" font-family="Helvetica,sans-Serif" font-size="10.00">+ clear()</text>
</a>
</g>
</g>
<!-- Node2&#45;&gt;Node1 -->
<g id="edge1" class="edge"><title>Node2&#45;&gt;Node1</title>
<path fill="none" stroke="midnightblue" d="M67,-116.972C67,-108.346 67,-99.2838 67,-90.6378"/>
<polygon fill="none" stroke="midnightblue" points="63.5001,-117.22 67,-127.22 70.5001,-117.22 63.5001,-117.22"/>
</g>
</g>
</svg>
