<?xml version="1.0" encoding="UTF-8" standalone="no"?>
<!DOCTYPE svg PUBLIC "-//W3C//DTD SVG 1.1//EN"
 "http://www.w3.org/Graphics/SVG/1.1/DTD/svg11.dtd">
<!-- Generated by graphviz version 2.38.0 (20140413.2041)
 -->
<!-- Title: PhysiK::IntersectionParticleParticle Pages: 1 -->
<svg width="232pt" height="1059pt"
 viewBox="0.00 0.00 232.00 1059.00" xmlns="http://www.w3.org/2000/svg" xmlns:xlink="http://www.w3.org/1999/xlink">
<g id="graph0" class="graph" transform="scale(1 1) rotate(0) translate(4 1055)">
<title>PhysiK::IntersectionParticleParticle</title>
<!-- Node1 -->
<g id="node1" class="node"><title>Node1</title>
<polygon fill="#bfbfbf" stroke="black" points="0,-0.5 0,-156.5 149,-156.5 149,-0.5 0,-0.5"/>
<text text-anchor="start" x="8" y="-144.5" font-family="Helvetica,sans-Serif" font-size="10.00">PhysiK::IntersectionParticle</text>
<text text-anchor="middle" x="74.5" y="-133.5" font-family="Helvetica,sans-Serif" font-size="10.00">Particle</text>
<polyline fill="none" stroke="black" points="0,-126.5 149,-126.5 "/>
<text text-anchor="start" x="8" y="-114.5" font-family="Helvetica,sans-Serif" font-size="10.00">&#45; offset1</text>
<text text-anchor="start" x="8" y="-103.5" font-family="Helvetica,sans-Serif" font-size="10.00">&#45; offset2</text>
<polyline fill="none" stroke="black" points="0,-96.5 149,-96.5 "/>
<text text-anchor="start" x="8" y="-84.5" font-family="Helvetica,sans-Serif" font-size="10.00">+ IntersectionParticleParticle()</text>
<text text-anchor="start" x="8" y="-73.5" font-family="Helvetica,sans-Serif" font-size="10.00">+ intersect()</text>
<text text-anchor="start" x="8" y="-62.5" font-family="Helvetica,sans-Serif" font-size="10.00">+ intersectPos()</text>
<text text-anchor="start" x="8" y="-51.5" font-family="Helvetica,sans-Serif" font-size="10.00">+ getConstraint()</text>
<text text-anchor="start" x="8" y="-40.5" font-family="Helvetica,sans-Serif" font-size="10.00">+ getParticle1()</text>
<text text-anchor="start" x="8" y="-29.5" font-family="Helvetica,sans-Serif" font-size="10.00">+ getParticle2()</text>
<text text-anchor="start" x="8" y="-18.5" font-family="Helvetica,sans-Serif" font-size="10.00">+ getWorks1()</text>
<text text-anchor="start" x="8" y="-7.5" font-family="Helvetica,sans-Serif" font-size="10.00">+ getWorks2()</text>
</g>
<!-- Node2 -->
<g id="node2" class="node"><title>Node2</title>
<g id="a_node2"><a xlink:href="classPhysiK_1_1ParticleGroup.html" target="_top" xlink:title="Represents a set of particles that share the same attributes (radius and mass) ">
<polygon fill="none" stroke="black" points="18,-215.5 18,-294.5 131,-294.5 131,-215.5 18,-215.5"/>
<text text-anchor="middle" x="74.5" y="-282.5" font-family="Helvetica,sans-Serif" font-size="10.00">PhysiK::ParticleGroup</text>
<polyline fill="none" stroke="black" points="18,-275.5 131,-275.5 "/>
<text text-anchor="start" x="26" y="-263.5" font-family="Helvetica,sans-Serif" font-size="10.00">+ mass</text>
<text text-anchor="start" x="26" y="-252.5" font-family="Helvetica,sans-Serif" font-size="10.00">+ radius</text>
<polyline fill="none" stroke="black" points="18,-245.5 131,-245.5 "/>
<text text-anchor="start" x="26" y="-233.5" font-family="Helvetica,sans-Serif" font-size="10.00">+ ParticleGroup()</text>
<text text-anchor="start" x="26" y="-222.5" font-family="Helvetica,sans-Serif" font-size="10.00">&#45; ParticleGroup()</text>
</a>
</g>
</g>
<!-- Node2&#45;&gt;Node1 -->
<g id="edge1" class="edge"><title>Node2&#45;&gt;Node1</title>
<path fill="none" stroke="#404040" d="M74.5,-215.273C74.5,-201.511 74.5,-185.387 74.5,-169.152"/>
<polygon fill="none" stroke="#404040" points="74.5001,-168.753 70.5,-162.753 74.5,-156.753 78.5,-162.753 74.5001,-168.753"/>
<text text-anchor="middle" x="99" y="-189" font-family="Helvetica,sans-Serif" font-size="10.00"> &#45;particles1</text>
<text text-anchor="middle" x="99" y="-178" font-family="Helvetica,sans-Serif" font-size="10.00">&#45;particles2</text>
</g>
<!-- Node3 -->
<g id="node3" class="node"><title>Node3</title>
<g id="a_node3"><a xlink:href="classPhysiK_1_1PhysicObject.html" target="_top" xlink:title="Internal representation of an object. ">
<polygon fill="none" stroke="black" points="18,-332.5 18,-521.5 131,-521.5 131,-332.5 18,-332.5"/>
<text text-anchor="middle" x="74.5" y="-509.5" font-family="Helvetica,sans-Serif" font-size="10.00">PhysiK::PhysicObject</text>
<polyline fill="none" stroke="black" points="18,-502.5 131,-502.5 "/>
<text text-anchor="start" x="26" y="-490.5" font-family="Helvetica,sans-Serif" font-size="10.00">+ nbParticles</text>
<text text-anchor="start" x="26" y="-479.5" font-family="Helvetica,sans-Serif" font-size="10.00">+ isKinematic</text>
<text text-anchor="start" x="26" y="-468.5" font-family="Helvetica,sans-Serif" font-size="10.00">&#45; hasBeenAllocated</text>
<polyline fill="none" stroke="black" points="18,-461.5 131,-461.5 "/>
<text text-anchor="start" x="26" y="-449.5" font-family="Helvetica,sans-Serif" font-size="10.00">+ getPositions()</text>
<text text-anchor="start" x="26" y="-438.5" font-family="Helvetica,sans-Serif" font-size="10.00">+ getOldPositions()</text>
<text text-anchor="start" x="26" y="-427.5" font-family="Helvetica,sans-Serif" font-size="10.00">+ getDeltaP()</text>
<text text-anchor="start" x="26" y="-416.5" font-family="Helvetica,sans-Serif" font-size="10.00">+ preUpdate()</text>
<text text-anchor="start" x="26" y="-405.5" font-family="Helvetica,sans-Serif" font-size="10.00">+ postUpdate()</text>
<text text-anchor="start" x="26" y="-394.5" font-family="Helvetica,sans-Serif" font-size="10.00">+ ~PhysicObject()</text>
<text text-anchor="start" x="26" y="-383.5" font-family="Helvetica,sans-Serif" font-size="10.00">&#45; PhysicObject()</text>
<text text-anchor="start" x="26" y="-372.5" font-family="Helvetica,sans-Serif" font-size="10.00">&#45; PhysicObject()</text>
<text text-anchor="start" x="26" y="-361.5" font-family="Helvetica,sans-Serif" font-size="10.00">&#45; operator=()</text>
<text text-anchor="start" x="26" y="-350.5" font-family="Helvetica,sans-Serif" font-size="10.00">&#45; PhysicObject()</text>
<text text-anchor="start" x="26" y="-339.5" font-family="Helvetica,sans-Serif" font-size="10.00">&#45; PhysicObject()</text>
</a>
</g>
</g>
<!-- Node3&#45;&gt;Node2 -->
<g id="edge2" class="edge"><title>Node3&#45;&gt;Node2</title>
<path fill="none" stroke="midnightblue" d="M74.5,-321.915C74.5,-312.288 74.5,-303.005 74.5,-294.596"/>
<polygon fill="none" stroke="midnightblue" points="71.0001,-322.05 74.5,-332.05 78.0001,-322.05 71.0001,-322.05"/>
</g>
<!-- Node4 -->
<g id="node4" class="node"><title>Node4</title>
<g id="a_node4"><a xlink:href="classPhysiK_1_1vec3.html" target="_top" xlink:title="A vertex. ">
<polygon fill="none" stroke="black" points="49.5,-707.5 49.5,-1050.5 143.5,-1050.5 143.5,-707.5 49.5,-707.5"/>
<text text-anchor="middle" x="96.5" y="-1038.5" font-family="Helvetica,sans-Serif" font-size="10.00">PhysiK::vec3</text>
<polyline fill="none" stroke="black" points="49.5,-1031.5 143.5,-1031.5 "/>
<text text-anchor="start" x="57.5" y="-1019.5" font-family="Helvetica,sans-Serif" font-size="10.00">+ x</text>
<text text-anchor="start" x="57.5" y="-1008.5" font-family="Helvetica,sans-Serif" font-size="10.00">+ y</text>
<text text-anchor="start" x="57.5" y="-997.5" font-family="Helvetica,sans-Serif" font-size="10.00">+ z</text>
<text text-anchor="start" x="57.5" y="-986.5" font-family="Helvetica,sans-Serif" font-size="10.00">+ voxelSize</text>
<polyline fill="none" stroke="black" points="49.5,-979.5 143.5,-979.5 "/>
<text text-anchor="start" x="57.5" y="-967.5" font-family="Helvetica,sans-Serif" font-size="10.00">+ vec3()</text>
<text text-anchor="start" x="57.5" y="-956.5" font-family="Helvetica,sans-Serif" font-size="10.00">+ operator()()</text>
<text text-anchor="start" x="57.5" y="-945.5" font-family="Helvetica,sans-Serif" font-size="10.00">+ operator[]()</text>
<text text-anchor="start" x="57.5" y="-934.5" font-family="Helvetica,sans-Serif" font-size="10.00">+ operator[]()</text>
<text text-anchor="start" x="57.5" y="-923.5" font-family="Helvetica,sans-Serif" font-size="10.00">+ operator*()</text>
<text text-anchor="start" x="57.5" y="-912.5" font-family="Helvetica,sans-Serif" font-size="10.00">+ operator*=()</text>
<text text-anchor="start" x="57.5" y="-901.5" font-family="Helvetica,sans-Serif" font-size="10.00">+ operator+()</text>
<text text-anchor="start" x="57.5" y="-890.5" font-family="Helvetica,sans-Serif" font-size="10.00">+ operator+()</text>
<text text-anchor="start" x="57.5" y="-879.5" font-family="Helvetica,sans-Serif" font-size="10.00">+ operator+=()</text>
<text text-anchor="start" x="57.5" y="-868.5" font-family="Helvetica,sans-Serif" font-size="10.00">+ operator&#45;=()</text>
<text text-anchor="start" x="57.5" y="-857.5" font-family="Helvetica,sans-Serif" font-size="10.00">+ operator/()</text>
<text text-anchor="start" x="57.5" y="-846.5" font-family="Helvetica,sans-Serif" font-size="10.00">+ operator/=()</text>
<text text-anchor="start" x="57.5" y="-835.5" font-family="Helvetica,sans-Serif" font-size="10.00">+ operator&#45;()</text>
<text text-anchor="start" x="57.5" y="-824.5" font-family="Helvetica,sans-Serif" font-size="10.00">+ operator==()</text>
<text text-anchor="start" x="57.5" y="-813.5" font-family="Helvetica,sans-Serif" font-size="10.00">+ operator&#45;()</text>
<text text-anchor="start" x="57.5" y="-802.5" font-family="Helvetica,sans-Serif" font-size="10.00">+ length()</text>
<text text-anchor="start" x="57.5" y="-791.5" font-family="Helvetica,sans-Serif" font-size="10.00">+ lengthSquared()</text>
<text text-anchor="start" x="57.5" y="-780.5" font-family="Helvetica,sans-Serif" font-size="10.00">+ normalize()</text>
<text text-anchor="start" x="57.5" y="-769.5" font-family="Helvetica,sans-Serif" font-size="10.00">+ cross()</text>
<text text-anchor="start" x="57.5" y="-758.5" font-family="Helvetica,sans-Serif" font-size="10.00">+ dot()</text>
<text text-anchor="start" x="57.5" y="-747.5" font-family="Helvetica,sans-Serif" font-size="10.00">+ toVoxel()</text>
<text text-anchor="start" x="57.5" y="-736.5" font-family="Helvetica,sans-Serif" font-size="10.00">+ toWorld()</text>
<text text-anchor="start" x="57.5" y="-725.5" font-family="Helvetica,sans-Serif" font-size="10.00">+ center()</text>
<text text-anchor="start" x="57.5" y="-714.5" font-family="Helvetica,sans-Serif" font-size="10.00">+ print()</text>
</a>
</g>
</g>
<!-- Node4&#45;&gt;Node3 -->
<g id="edge3" class="edge"><title>Node4&#45;&gt;Node3</title>
<path fill="none" stroke="#404040" d="M74.1351,-707.447C71.8021,-684.147 69.8086,-660.51 68.5,-638 66.7202,-607.385 67.848,-599.66 68.5,-569 68.7417,-557.637 69.0927,-545.763 69.5056,-533.935"/>
<polygon fill="none" stroke="#404040" points="69.5163,-533.642 65.739,-527.5 69.9563,-521.65 73.7336,-527.793 69.5163,-533.642"/>
<text text-anchor="middle" x="98.5" y="-601" font-family="Helvetica,sans-Serif" font-size="10.00"> &#45;oldPositions</text>
</g>
<!-- Node5 -->
<g id="node5" class="node"><title>Node5</title>
<g id="a_node5"><a xlink:href="classPhysiK_1_1Particle.html" target="_top" xlink:title="The Particle class. ">
<polygon fill="none" stroke="black" points="137,-569.5 137,-637.5 224,-637.5 224,-569.5 137,-569.5"/>
<text text-anchor="middle" x="180.5" y="-625.5" font-family="Helvetica,sans-Serif" font-size="10.00">PhysiK::Particle</text>
<polyline fill="none" stroke="black" points="137,-618.5 224,-618.5 "/>
<text text-anchor="start" x="145" y="-606.5" font-family="Helvetica,sans-Serif" font-size="10.00">+ omega</text>
<polyline fill="none" stroke="black" points="137,-599.5 224,-599.5 "/>
<text text-anchor="start" x="145" y="-587.5" font-family="Helvetica,sans-Serif" font-size="10.00">+ Particle()</text>
<text text-anchor="start" x="145" y="-576.5" font-family="Helvetica,sans-Serif" font-size="10.00">+ Particle()</text>
</a>
</g>
</g>
<!-- Node4&#45;&gt;Node5 -->
<g id="edge5" class="edge"><title>Node4&#45;&gt;Node5</title>
<path fill="none" stroke="#404040" d="M143.534,-724.859C152.035,-697.18 160.257,-670.41 166.779,-649.173"/>
<polygon fill="none" stroke="#404040" points="166.792,-649.131 164.73,-642.221 170.316,-637.66 172.378,-644.57 166.792,-649.131"/>
<text text-anchor="middle" x="187.5" y="-681" font-family="Helvetica,sans-Serif" font-size="10.00"> +pos</text>
<text text-anchor="middle" x="187.5" y="-670" font-family="Helvetica,sans-Serif" font-size="10.00">+velocity</text>
<text text-anchor="middle" x="187.5" y="-659" font-family="Helvetica,sans-Serif" font-size="10.00">+impulsion</text>
</g>
<!-- Node5&#45;&gt;Node3 -->
<g id="edge4" class="edge"><title>Node5&#45;&gt;Node3</title>
<path fill="none" stroke="#404040" d="M160.313,-569.267C153.563,-558.156 145.644,-545.119 137.393,-531.535"/>
<polygon fill="none" stroke="#404040" points="137.262,-531.32 130.728,-528.269 131.032,-521.064 137.566,-524.116 137.262,-531.32"/>
<text text-anchor="middle" x="170" y="-543" font-family="Helvetica,sans-Serif" font-size="10.00"> &#45;particles</text>
</g>
</g>
</svg>
