<?xml version="1.0" encoding="UTF-8" standalone="no"?>
<!DOCTYPE svg PUBLIC "-//W3C//DTD SVG 1.1//EN"
 "http://www.w3.org/Graphics/SVG/1.1/DTD/svg11.dtd">
<!-- Generated by graphviz version 2.38.0 (20140413.2041)
 -->
<!-- Title: PhysiK::DistanceConstraint Pages: 1 -->
<svg width="146pt" height="204pt"
 viewBox="0.00 0.00 146.00 204.00" xmlns="http://www.w3.org/2000/svg" xmlns:xlink="http://www.w3.org/1999/xlink">
<g id="graph0" class="graph" transform="scale(1 1) rotate(0) translate(4 200)">
<title>PhysiK::DistanceConstraint</title>
<!-- Node1 -->
<g id="node1" class="node"><title>Node1</title>
<polygon fill="#bfbfbf" stroke="black" points="0,-0.5 0,-68.5 138,-68.5 138,-0.5 0,-0.5"/>
<text text-anchor="middle" x="69" y="-56.5" font-family="Helvetica,sans-Serif" font-size="10.00">PhysiK::DistanceConstraint</text>
<polyline fill="none" stroke="black" points="0,-49.5 138,-49.5 "/>
<text text-anchor="start" x="8" y="-37.5" font-family="Helvetica,sans-Serif" font-size="10.00">&#45; dst</text>
<polyline fill="none" stroke="black" points="0,-30.5 138,-30.5 "/>
<text text-anchor="start" x="8" y="-18.5" font-family="Helvetica,sans-Serif" font-size="10.00">+ DistanceConstraint()</text>
<text text-anchor="start" x="8" y="-7.5" font-family="Helvetica,sans-Serif" font-size="10.00">+ eval()</text>
</g>
<!-- Node2 -->
<g id="node2" class="node"><title>Node2</title>
<g id="a_node2"><a xlink:href="classPhysiK_1_1Constraint.html" target="_top" xlink:title="Compute the constraint (see 1st report) to apply to the list of vertices. ">
<polygon fill="none" stroke="black" points="19.5,-105.5 19.5,-195.5 118.5,-195.5 118.5,-105.5 19.5,-105.5"/>
<text text-anchor="middle" x="69" y="-183.5" font-family="Helvetica,sans-Serif" font-size="10.00">PhysiK::Constraint</text>
<polyline fill="none" stroke="black" points="19.5,-176.5 118.5,-176.5 "/>
<text text-anchor="start" x="27.5" y="-164.5" font-family="Helvetica,sans-Serif" font-size="10.00">&#45; positions</text>
<polyline fill="none" stroke="black" points="19.5,-157.5 118.5,-157.5 "/>
<text text-anchor="start" x="27.5" y="-145.5" font-family="Helvetica,sans-Serif" font-size="10.00">+ eval()</text>
<text text-anchor="start" x="27.5" y="-134.5" font-family="Helvetica,sans-Serif" font-size="10.00">+ grad()</text>
<text text-anchor="start" x="27.5" y="-123.5" font-family="Helvetica,sans-Serif" font-size="10.00">+ lambda()</text>
<text text-anchor="start" x="27.5" y="-112.5" font-family="Helvetica,sans-Serif" font-size="10.00">+ ~Constraint()</text>
</a>
</g>
</g>
<!-- Node2&#45;&gt;Node1 -->
<g id="edge1" class="edge"><title>Node2&#45;&gt;Node1</title>
<path fill="none" stroke="midnightblue" d="M69,-95.3164C69,-86.2849 69,-77.1589 69,-68.8483"/>
<polygon fill="none" stroke="midnightblue" points="65.5001,-95.4246 69,-105.425 72.5001,-95.4247 65.5001,-95.4246"/>
</g>
</g>
</svg>
