<?xml version="1.0" encoding="UTF-8" standalone="no"?>
<!DOCTYPE svg PUBLIC "-//W3C//DTD SVG 1.1//EN"
 "http://www.w3.org/Graphics/SVG/1.1/DTD/svg11.dtd">
<!-- Generated by graphviz version 2.38.0 (20140413.2041)
 -->
<!-- Title: PhysiK::ParticleGroup Pages: 1 -->
<svg width="214pt" height="844pt"
 viewBox="0.00 0.00 214.00 844.00" xmlns="http://www.w3.org/2000/svg" xmlns:xlink="http://www.w3.org/1999/xlink">
<g id="graph0" class="graph" transform="scale(1 1) rotate(0) translate(4 840)">
<title>PhysiK::ParticleGroup</title>
<!-- Node1 -->
<g id="node1" class="node"><title>Node1</title>
<polygon fill="#bfbfbf" stroke="black" points="0,-0.5 0,-79.5 113,-79.5 113,-0.5 0,-0.5"/>
<text text-anchor="middle" x="56.5" y="-67.5" font-family="Helvetica,sans-Serif" font-size="10.00">PhysiK::ParticleGroup</text>
<polyline fill="none" stroke="black" points="0,-60.5 113,-60.5 "/>
<text text-anchor="start" x="8" y="-48.5" font-family="Helvetica,sans-Serif" font-size="10.00">+ mass</text>
<text text-anchor="start" x="8" y="-37.5" font-family="Helvetica,sans-Serif" font-size="10.00">+ radius</text>
<polyline fill="none" stroke="black" points="0,-30.5 113,-30.5 "/>
<text text-anchor="start" x="8" y="-18.5" font-family="Helvetica,sans-Serif" font-size="10.00">+ ParticleGroup()</text>
<text text-anchor="start" x="8" y="-7.5" font-family="Helvetica,sans-Serif" font-size="10.00">&#45; ParticleGroup()</text>
</g>
<!-- Node2 -->
<g id="node2" class="node"><title>Node2</title>
<g id="a_node2"><a xlink:href="classPhysiK_1_1PhysicObject.html" target="_top" xlink:title="Internal representation of an object. ">
<polygon fill="none" stroke="black" points="0,-117.5 0,-306.5 113,-306.5 113,-117.5 0,-117.5"/>
<text text-anchor="middle" x="56.5" y="-294.5" font-family="Helvetica,sans-Serif" font-size="10.00">PhysiK::PhysicObject</text>
<polyline fill="none" stroke="black" points="0,-287.5 113,-287.5 "/>
<text text-anchor="start" x="8" y="-275.5" font-family="Helvetica,sans-Serif" font-size="10.00">+ nbParticles</text>
<text text-anchor="start" x="8" y="-264.5" font-family="Helvetica,sans-Serif" font-size="10.00">+ isKinematic</text>
<text text-anchor="start" x="8" y="-253.5" font-family="Helvetica,sans-Serif" font-size="10.00">&#45; hasBeenAllocated</text>
<polyline fill="none" stroke="black" points="0,-246.5 113,-246.5 "/>
<text text-anchor="start" x="8" y="-234.5" font-family="Helvetica,sans-Serif" font-size="10.00">+ getPositions()</text>
<text text-anchor="start" x="8" y="-223.5" font-family="Helvetica,sans-Serif" font-size="10.00">+ getOldPositions()</text>
<text text-anchor="start" x="8" y="-212.5" font-family="Helvetica,sans-Serif" font-size="10.00">+ getDeltaP()</text>
<text text-anchor="start" x="8" y="-201.5" font-family="Helvetica,sans-Serif" font-size="10.00">+ preUpdate()</text>
<text text-anchor="start" x="8" y="-190.5" font-family="Helvetica,sans-Serif" font-size="10.00">+ postUpdate()</text>
<text text-anchor="start" x="8" y="-179.5" font-family="Helvetica,sans-Serif" font-size="10.00">+ ~PhysicObject()</text>
<text text-anchor="start" x="8" y="-168.5" font-family="Helvetica,sans-Serif" font-size="10.00">&#45; PhysicObject()</text>
<text text-anchor="start" x="8" y="-157.5" font-family="Helvetica,sans-Serif" font-size="10.00">&#45; PhysicObject()</text>
<text text-anchor="start" x="8" y="-146.5" font-family="Helvetica,sans-Serif" font-size="10.00">&#45; operator=()</text>
<text text-anchor="start" x="8" y="-135.5" font-family="Helvetica,sans-Serif" font-size="10.00">&#45; PhysicObject()</text>
<text text-anchor="start" x="8" y="-124.5" font-family="Helvetica,sans-Serif" font-size="10.00">&#45; PhysicObject()</text>
</a>
</g>
</g>
<!-- Node2&#45;&gt;Node1 -->
<g id="edge1" class="edge"><title>Node2&#45;&gt;Node1</title>
<path fill="none" stroke="midnightblue" d="M56.5,-106.915C56.5,-97.2875 56.5,-88.0047 56.5,-79.5956"/>
<polygon fill="none" stroke="midnightblue" points="53.0001,-107.05 56.5,-117.05 60.0001,-107.05 53.0001,-107.05"/>
</g>
<!-- Node3 -->
<g id="node3" class="node"><title>Node3</title>
<g id="a_node3"><a xlink:href="classPhysiK_1_1vec3.html" target="_top" xlink:title="A vertex. ">
<polygon fill="none" stroke="black" points="31.5,-492.5 31.5,-835.5 125.5,-835.5 125.5,-492.5 31.5,-492.5"/>
<text text-anchor="middle" x="78.5" y="-823.5" font-family="Helvetica,sans-Serif" font-size="10.00">PhysiK::vec3</text>
<polyline fill="none" stroke="black" points="31.5,-816.5 125.5,-816.5 "/>
<text text-anchor="start" x="39.5" y="-804.5" font-family="Helvetica,sans-Serif" font-size="10.00">+ x</text>
<text text-anchor="start" x="39.5" y="-793.5" font-family="Helvetica,sans-Serif" font-size="10.00">+ y</text>
<text text-anchor="start" x="39.5" y="-782.5" font-family="Helvetica,sans-Serif" font-size="10.00">+ z</text>
<text text-anchor="start" x="39.5" y="-771.5" font-family="Helvetica,sans-Serif" font-size="10.00">+ voxelSize</text>
<polyline fill="none" stroke="black" points="31.5,-764.5 125.5,-764.5 "/>
<text text-anchor="start" x="39.5" y="-752.5" font-family="Helvetica,sans-Serif" font-size="10.00">+ vec3()</text>
<text text-anchor="start" x="39.5" y="-741.5" font-family="Helvetica,sans-Serif" font-size="10.00">+ operator()()</text>
<text text-anchor="start" x="39.5" y="-730.5" font-family="Helvetica,sans-Serif" font-size="10.00">+ operator[]()</text>
<text text-anchor="start" x="39.5" y="-719.5" font-family="Helvetica,sans-Serif" font-size="10.00">+ operator[]()</text>
<text text-anchor="start" x="39.5" y="-708.5" font-family="Helvetica,sans-Serif" font-size="10.00">+ operator*()</text>
<text text-anchor="start" x="39.5" y="-697.5" font-family="Helvetica,sans-Serif" font-size="10.00">+ operator*=()</text>
<text text-anchor="start" x="39.5" y="-686.5" font-family="Helvetica,sans-Serif" font-size="10.00">+ operator+()</text>
<text text-anchor="start" x="39.5" y="-675.5" font-family="Helvetica,sans-Serif" font-size="10.00">+ operator+()</text>
<text text-anchor="start" x="39.5" y="-664.5" font-family="Helvetica,sans-Serif" font-size="10.00">+ operator+=()</text>
<text text-anchor="start" x="39.5" y="-653.5" font-family="Helvetica,sans-Serif" font-size="10.00">+ operator&#45;=()</text>
<text text-anchor="start" x="39.5" y="-642.5" font-family="Helvetica,sans-Serif" font-size="10.00">+ operator/()</text>
<text text-anchor="start" x="39.5" y="-631.5" font-family="Helvetica,sans-Serif" font-size="10.00">+ operator/=()</text>
<text text-anchor="start" x="39.5" y="-620.5" font-family="Helvetica,sans-Serif" font-size="10.00">+ operator&#45;()</text>
<text text-anchor="start" x="39.5" y="-609.5" font-family="Helvetica,sans-Serif" font-size="10.00">+ operator==()</text>
<text text-anchor="start" x="39.5" y="-598.5" font-family="Helvetica,sans-Serif" font-size="10.00">+ operator&#45;()</text>
<text text-anchor="start" x="39.5" y="-587.5" font-family="Helvetica,sans-Serif" font-size="10.00">+ length()</text>
<text text-anchor="start" x="39.5" y="-576.5" font-family="Helvetica,sans-Serif" font-size="10.00">+ lengthSquared()</text>
<text text-anchor="start" x="39.5" y="-565.5" font-family="Helvetica,sans-Serif" font-size="10.00">+ normalize()</text>
<text text-anchor="start" x="39.5" y="-554.5" font-family="Helvetica,sans-Serif" font-size="10.00">+ cross()</text>
<text text-anchor="start" x="39.5" y="-543.5" font-family="Helvetica,sans-Serif" font-size="10.00">+ dot()</text>
<text text-anchor="start" x="39.5" y="-532.5" font-family="Helvetica,sans-Serif" font-size="10.00">+ toVoxel()</text>
<text text-anchor="start" x="39.5" y="-521.5" font-family="Helvetica,sans-Serif" font-size="10.00">+ toWorld()</text>
<text text-anchor="start" x="39.5" y="-510.5" font-family="Helvetica,sans-Serif" font-size="10.00">+ center()</text>
<text text-anchor="start" x="39.5" y="-499.5" font-family="Helvetica,sans-Serif" font-size="10.00">+ print()</text>
</a>
</g>
</g>
<!-- Node3&#45;&gt;Node2 -->
<g id="edge2" class="edge"><title>Node3&#45;&gt;Node2</title>
<path fill="none" stroke="#404040" d="M56.1351,-492.447C53.8021,-469.147 51.8086,-445.51 50.5,-423 48.7202,-392.385 49.848,-384.66 50.5,-354 50.7417,-342.637 51.0927,-330.763 51.5056,-318.935"/>
<polygon fill="none" stroke="#404040" points="51.5163,-318.642 47.739,-312.5 51.9563,-306.65 55.7336,-312.793 51.5163,-318.642"/>
<text text-anchor="middle" x="80.5" y="-386" font-family="Helvetica,sans-Serif" font-size="10.00"> &#45;oldPositions</text>
</g>
<!-- Node4 -->
<g id="node4" class="node"><title>Node4</title>
<g id="a_node4"><a xlink:href="classPhysiK_1_1Particle.html" target="_top" xlink:title="The Particle class. ">
<polygon fill="none" stroke="black" points="119,-354.5 119,-422.5 206,-422.5 206,-354.5 119,-354.5"/>
<text text-anchor="middle" x="162.5" y="-410.5" font-family="Helvetica,sans-Serif" font-size="10.00">PhysiK::Particle</text>
<polyline fill="none" stroke="black" points="119,-403.5 206,-403.5 "/>
<text text-anchor="start" x="127" y="-391.5" font-family="Helvetica,sans-Serif" font-size="10.00">+ omega</text>
<polyline fill="none" stroke="black" points="119,-384.5 206,-384.5 "/>
<text text-anchor="start" x="127" y="-372.5" font-family="Helvetica,sans-Serif" font-size="10.00">+ Particle()</text>
<text text-anchor="start" x="127" y="-361.5" font-family="Helvetica,sans-Serif" font-size="10.00">+ Particle()</text>
</a>
</g>
</g>
<!-- Node3&#45;&gt;Node4 -->
<g id="edge4" class="edge"><title>Node3&#45;&gt;Node4</title>
<path fill="none" stroke="#404040" d="M125.534,-509.859C134.035,-482.18 142.257,-455.41 148.779,-434.173"/>
<polygon fill="none" stroke="#404040" points="148.792,-434.131 146.73,-427.221 152.316,-422.66 154.378,-429.57 148.792,-434.131"/>
<text text-anchor="middle" x="169.5" y="-466" font-family="Helvetica,sans-Serif" font-size="10.00"> +pos</text>
<text text-anchor="middle" x="169.5" y="-455" font-family="Helvetica,sans-Serif" font-size="10.00">+velocity</text>
<text text-anchor="middle" x="169.5" y="-444" font-family="Helvetica,sans-Serif" font-size="10.00">+impulsion</text>
</g>
<!-- Node4&#45;&gt;Node2 -->
<g id="edge3" class="edge"><title>Node4&#45;&gt;Node2</title>
<path fill="none" stroke="#404040" d="M142.313,-354.267C135.563,-343.156 127.644,-330.119 119.393,-316.535"/>
<polygon fill="none" stroke="#404040" points="119.262,-316.32 112.728,-313.269 113.032,-306.064 119.566,-309.116 119.262,-316.32"/>
<text text-anchor="middle" x="152" y="-328" font-family="Helvetica,sans-Serif" font-size="10.00"> &#45;particles</text>
</g>
</g>
</svg>
