<?xml version="1.0" encoding="UTF-8" standalone="no"?>
<!DOCTYPE svg PUBLIC "-//W3C//DTD SVG 1.1//EN"
 "http://www.w3.org/Graphics/SVG/1.1/DTD/svg11.dtd">
<!-- Generated by graphviz version 2.38.0 (20140413.2041)
 -->
<!-- Title: PhysiK::MaxDistanceConstraint Pages: 1 -->
<svg width="165pt" height="204pt"
 viewBox="0.00 0.00 165.00 204.00" xmlns="http://www.w3.org/2000/svg" xmlns:xlink="http://www.w3.org/1999/xlink">
<g id="graph0" class="graph" transform="scale(1 1) rotate(0) translate(4 200)">
<title>PhysiK::MaxDistanceConstraint</title>
<!-- Node1 -->
<g id="node1" class="node"><title>Node1</title>
<polygon fill="#bfbfbf" stroke="black" points="0,-0.5 0,-68.5 157,-68.5 157,-0.5 0,-0.5"/>
<text text-anchor="middle" x="78.5" y="-56.5" font-family="Helvetica,sans-Serif" font-size="10.00">PhysiK::MaxDistanceConstraint</text>
<polyline fill="none" stroke="black" points="0,-49.5 157,-49.5 "/>
<text text-anchor="start" x="8" y="-37.5" font-family="Helvetica,sans-Serif" font-size="10.00">&#45; dst</text>
<polyline fill="none" stroke="black" points="0,-30.5 157,-30.5 "/>
<text text-anchor="start" x="8" y="-18.5" font-family="Helvetica,sans-Serif" font-size="10.00">+ MaxDistanceConstraint()</text>
<text text-anchor="start" x="8" y="-7.5" font-family="Helvetica,sans-Serif" font-size="10.00">+ eval()</text>
</g>
<!-- Node2 -->
<g id="node2" class="node"><title>Node2</title>
<g id="a_node2"><a xlink:href="classPhysiK_1_1Constraint.html" target="_top" xlink:title="Compute the constraint (see 1st report) to apply to the list of vertices. ">
<polygon fill="none" stroke="black" points="29,-105.5 29,-195.5 128,-195.5 128,-105.5 29,-105.5"/>
<text text-anchor="middle" x="78.5" y="-183.5" font-family="Helvetica,sans-Serif" font-size="10.00">PhysiK::Constraint</text>
<polyline fill="none" stroke="black" points="29,-176.5 128,-176.5 "/>
<text text-anchor="start" x="37" y="-164.5" font-family="Helvetica,sans-Serif" font-size="10.00">&#45; positions</text>
<polyline fill="none" stroke="black" points="29,-157.5 128,-157.5 "/>
<text text-anchor="start" x="37" y="-145.5" font-family="Helvetica,sans-Serif" font-size="10.00">+ eval()</text>
<text text-anchor="start" x="37" y="-134.5" font-family="Helvetica,sans-Serif" font-size="10.00">+ grad()</text>
<text text-anchor="start" x="37" y="-123.5" font-family="Helvetica,sans-Serif" font-size="10.00">+ lambda()</text>
<text text-anchor="start" x="37" y="-112.5" font-family="Helvetica,sans-Serif" font-size="10.00">+ ~Constraint()</text>
</a>
</g>
</g>
<!-- Node2&#45;&gt;Node1 -->
<g id="edge1" class="edge"><title>Node2&#45;&gt;Node1</title>
<path fill="none" stroke="midnightblue" d="M78.5,-95.3164C78.5,-86.2849 78.5,-77.1589 78.5,-68.8483"/>
<polygon fill="none" stroke="midnightblue" points="75.0001,-95.4246 78.5,-105.425 82.0001,-95.4247 75.0001,-95.4246"/>
</g>
</g>
</svg>
