<?xml version="1.0" encoding="UTF-8" standalone="no"?>
<!DOCTYPE svg PUBLIC "-//W3C//DTD SVG 1.1//EN"
 "http://www.w3.org/Graphics/SVG/1.1/DTD/svg11.dtd">
<!-- Generated by graphviz version 2.38.0 (20140413.2041)
 -->
<!-- Title: PhysiK::ParticleSystem Pages: 1 -->
<svg width="458pt" height="519pt"
 viewBox="0.00 0.00 458.00 519.00" xmlns="http://www.w3.org/2000/svg" xmlns:xlink="http://www.w3.org/1999/xlink">
<g id="graph0" class="graph" transform="scale(1 1) rotate(0) translate(4 515)">
<title>PhysiK::ParticleSystem</title>
<!-- Node1 -->
<g id="node1" class="node"><title>Node1</title>
<polygon fill="#bfbfbf" stroke="black" points="153,-0.5 153,-244.5 299,-244.5 299,-0.5 153,-0.5"/>
<text text-anchor="middle" x="226" y="-232.5" font-family="Helvetica,sans-Serif" font-size="10.00">PhysiK::ParticleSystem</text>
<polyline fill="none" stroke="black" points="153,-225.5 299,-225.5 "/>
<text text-anchor="start" x="161" y="-213.5" font-family="Helvetica,sans-Serif" font-size="10.00">&#45; physicObjecs</text>
<text text-anchor="start" x="161" y="-202.5" font-family="Helvetica,sans-Serif" font-size="10.00">&#45; ptpIntersections</text>
<text text-anchor="start" x="161" y="-191.5" font-family="Helvetica,sans-Serif" font-size="10.00">&#45; pttIntersections</text>
<text text-anchor="start" x="161" y="-180.5" font-family="Helvetica,sans-Serif" font-size="10.00">&#45; gravity</text>
<text text-anchor="start" x="161" y="-169.5" font-family="Helvetica,sans-Serif" font-size="10.00">&#45; damping</text>
<text text-anchor="start" x="161" y="-158.5" font-family="Helvetica,sans-Serif" font-size="10.00">&#45; nbIterations</text>
<polyline fill="none" stroke="black" points="153,-151.5 299,-151.5 "/>
<text text-anchor="start" x="161" y="-139.5" font-family="Helvetica,sans-Serif" font-size="10.00">+ ParticleSystem()</text>
<text text-anchor="start" x="161" y="-128.5" font-family="Helvetica,sans-Serif" font-size="10.00">+ addRigidBody()</text>
<text text-anchor="start" x="161" y="-117.5" font-family="Helvetica,sans-Serif" font-size="10.00">+ addSoftBody()</text>
<text text-anchor="start" x="161" y="-106.5" font-family="Helvetica,sans-Serif" font-size="10.00">+ addCloth()</text>
<text text-anchor="start" x="161" y="-95.5" font-family="Helvetica,sans-Serif" font-size="10.00">+ addCube()</text>
<text text-anchor="start" x="161" y="-84.5" font-family="Helvetica,sans-Serif" font-size="10.00">+ addParticleGroup()</text>
<text text-anchor="start" x="161" y="-73.5" font-family="Helvetica,sans-Serif" font-size="10.00">+ nextSimulationStep()</text>
<text text-anchor="start" x="161" y="-62.5" font-family="Helvetica,sans-Serif" font-size="10.00">+ setNbIterations()</text>
<text text-anchor="start" x="161" y="-51.5" font-family="Helvetica,sans-Serif" font-size="10.00">+ reset()</text>
<text text-anchor="start" x="161" y="-40.5" font-family="Helvetica,sans-Serif" font-size="10.00">&#45; genIntersectionConstraints()</text>
<text text-anchor="start" x="161" y="-29.5" font-family="Helvetica,sans-Serif" font-size="10.00">&#45; velocityUpdate()</text>
<text text-anchor="start" x="161" y="-18.5" font-family="Helvetica,sans-Serif" font-size="10.00">&#45; toParticles()</text>
<text text-anchor="start" x="161" y="-7.5" font-family="Helvetica,sans-Serif" font-size="10.00">&#45; addClothConstraint()</text>
</g>
<!-- Node2 -->
<g id="node2" class="node"><title>Node2</title>
<g id="a_node2"><a xlink:href="classPhysiK_1_1TriangleHashTable.html" target="_top" xlink:title="A HashTable for triangles. ">
<polygon fill="none" stroke="black" points="0,-320 0,-377 136,-377 136,-320 0,-320"/>
<text text-anchor="middle" x="68" y="-365" font-family="Helvetica,sans-Serif" font-size="10.00">PhysiK::TriangleHashTable</text>
<polyline fill="none" stroke="black" points="0,-358 136,-358 "/>
<text text-anchor="middle" x="68" y="-346" font-family="Helvetica,sans-Serif" font-size="10.00"> </text>
<polyline fill="none" stroke="black" points="0,-339 136,-339 "/>
<text text-anchor="start" x="8" y="-327" font-family="Helvetica,sans-Serif" font-size="10.00">+ addObject()</text>
</a>
</g>
</g>
<!-- Node2&#45;&gt;Node1 -->
<g id="edge1" class="edge"><title>Node2&#45;&gt;Node1</title>
<path fill="none" stroke="#404040" d="M87.6913,-319.583C102.62,-298.418 124.209,-267.812 145.907,-237.05"/>
<polygon fill="none" stroke="#404040" points="146.031,-236.874 146.22,-229.666 152.947,-227.068 152.758,-234.277 146.031,-236.874"/>
<text text-anchor="middle" x="137" y="-266" font-family="Helvetica,sans-Serif" font-size="10.00"> &#45;THT</text>
</g>
<!-- Node3 -->
<g id="node3" class="node"><title>Node3</title>
<g id="a_node3"><a xlink:href="classPhysiK_1_1HashTable.html" target="_top" xlink:title="{PhysiK::HashTable\&lt;\l Body \&gt;\n|&#45; voxelGrid\l|+ clear()\l}">
<polygon fill="none" stroke="black" points="14.5,-442.5 14.5,-510.5 121.5,-510.5 121.5,-442.5 14.5,-442.5"/>
<text text-anchor="start" x="22.5" y="-498.5" font-family="Helvetica,sans-Serif" font-size="10.00">PhysiK::HashTable&lt;</text>
<text text-anchor="middle" x="68" y="-487.5" font-family="Helvetica,sans-Serif" font-size="10.00"> Body &gt;</text>
<polyline fill="none" stroke="black" points="14.5,-480.5 121.5,-480.5 "/>
<text text-anchor="start" x="22.5" y="-468.5" font-family="Helvetica,sans-Serif" font-size="10.00">&#45; voxelGrid</text>
<polyline fill="none" stroke="black" points="14.5,-461.5 121.5,-461.5 "/>
<text text-anchor="start" x="22.5" y="-449.5" font-family="Helvetica,sans-Serif" font-size="10.00">+ clear()</text>
</a>
</g>
</g>
<!-- Node3&#45;&gt;Node2 -->
<g id="edge2" class="edge"><title>Node3&#45;&gt;Node2</title>
<path fill="none" stroke="midnightblue" d="M68,-432.291C68,-414.076 68,-393.404 68,-377.273"/>
<polygon fill="none" stroke="midnightblue" points="64.5001,-432.395 68,-442.395 71.5001,-432.395 64.5001,-432.395"/>
</g>
<!-- Node4 -->
<g id="node4" class="node"><title>Node4</title>
<g id="a_node4"><a xlink:href="classPhysiK_1_1Solver.html" target="_top" xlink:title="Allow to set&#45;up a system. ">
<polygon fill="none" stroke="black" points="154,-292.5 154,-404.5 298,-404.5 298,-292.5 154,-292.5"/>
<text text-anchor="middle" x="226" y="-392.5" font-family="Helvetica,sans-Serif" font-size="10.00">PhysiK::Solver</text>
<polyline fill="none" stroke="black" points="154,-385.5 298,-385.5 "/>
<text text-anchor="start" x="162" y="-373.5" font-family="Helvetica,sans-Serif" font-size="10.00">&#45; constraints</text>
<text text-anchor="start" x="162" y="-362.5" font-family="Helvetica,sans-Serif" font-size="10.00">&#45; temporaryConstraints</text>
<polyline fill="none" stroke="black" points="154,-355.5 298,-355.5 "/>
<text text-anchor="start" x="162" y="-343.5" font-family="Helvetica,sans-Serif" font-size="10.00">+ solve()</text>
<text text-anchor="start" x="162" y="-332.5" font-family="Helvetica,sans-Serif" font-size="10.00">+ pushConstraint()</text>
<text text-anchor="start" x="162" y="-321.5" font-family="Helvetica,sans-Serif" font-size="10.00">+ pushTemporaryConstraint()</text>
<text text-anchor="start" x="162" y="-310.5" font-family="Helvetica,sans-Serif" font-size="10.00">+ clearTemporaryConstraint()</text>
<text text-anchor="start" x="162" y="-299.5" font-family="Helvetica,sans-Serif" font-size="10.00">+ clearConstraints()</text>
</a>
</g>
</g>
<!-- Node4&#45;&gt;Node1 -->
<g id="edge3" class="edge"><title>Node4&#45;&gt;Node1</title>
<path fill="none" stroke="#404040" d="M226,-292.417C226,-281.324 226,-269.216 226,-256.744"/>
<polygon fill="none" stroke="#404040" points="226,-256.696 222,-250.696 226,-244.696 230,-250.696 226,-256.696"/>
<text text-anchor="middle" x="242.5" y="-266" font-family="Helvetica,sans-Serif" font-size="10.00"> &#45;solver</text>
</g>
<!-- Node5 -->
<g id="node5" class="node"><title>Node5</title>
<g id="a_node5"><a xlink:href="classPhysiK_1_1ParticleHashTable.html" target="_top" xlink:title="A HashTable for particles. ">
<polygon fill="none" stroke="black" points="316,-303.5 316,-393.5 450,-393.5 450,-303.5 316,-303.5"/>
<text text-anchor="middle" x="383" y="-381.5" font-family="Helvetica,sans-Serif" font-size="10.00">PhysiK::ParticleHashTable</text>
<polyline fill="none" stroke="black" points="316,-374.5 450,-374.5 "/>
<text text-anchor="middle" x="383" y="-362.5" font-family="Helvetica,sans-Serif" font-size="10.00"> </text>
<polyline fill="none" stroke="black" points="316,-355.5 450,-355.5 "/>
<text text-anchor="start" x="324" y="-343.5" font-family="Helvetica,sans-Serif" font-size="10.00">+ addObject()</text>
<text text-anchor="start" x="324" y="-332.5" font-family="Helvetica,sans-Serif" font-size="10.00">+ generateIntersection()</text>
<text text-anchor="start" x="324" y="-321.5" font-family="Helvetica,sans-Serif" font-size="10.00">+ generateIntersectionWith</text>
<text text-anchor="start" x="324" y="-310.5" font-family="Helvetica,sans-Serif" font-size="10.00">Triangles()</text>
</a>
</g>
</g>
<!-- Node5&#45;&gt;Node1 -->
<g id="edge4" class="edge"><title>Node5&#45;&gt;Node1</title>
<path fill="none" stroke="#404040" d="M351.982,-303.245C338.689,-284.279 322.486,-261.162 306.187,-237.906"/>
<polygon fill="none" stroke="#404040" points="306.091,-237.77 299.371,-235.152 299.203,-227.943 305.923,-230.56 306.091,-237.77"/>
<text text-anchor="middle" x="341.5" y="-266" font-family="Helvetica,sans-Serif" font-size="10.00"> &#45;PHT</text>
</g>
<!-- Node6 -->
<g id="node6" class="node"><title>Node6</title>
<g id="a_node6"><a xlink:href="classPhysiK_1_1HashTable.html" target="_top" xlink:title="{PhysiK::HashTable\&lt;\l ParticleGroup \&gt;\n|&#45; voxelGrid\l|+ clear()\l}">
<polygon fill="none" stroke="black" points="329.5,-442.5 329.5,-510.5 436.5,-510.5 436.5,-442.5 329.5,-442.5"/>
<text text-anchor="start" x="337.5" y="-498.5" font-family="Helvetica,sans-Serif" font-size="10.00">PhysiK::HashTable&lt;</text>
<text text-anchor="middle" x="383" y="-487.5" font-family="Helvetica,sans-Serif" font-size="10.00"> ParticleGroup &gt;</text>
<polyline fill="none" stroke="black" points="329.5,-480.5 436.5,-480.5 "/>
<text text-anchor="start" x="337.5" y="-468.5" font-family="Helvetica,sans-Serif" font-size="10.00">&#45; voxelGrid</text>
<polyline fill="none" stroke="black" points="329.5,-461.5 436.5,-461.5 "/>
<text text-anchor="start" x="337.5" y="-449.5" font-family="Helvetica,sans-Serif" font-size="10.00">+ clear()</text>
</a>
</g>
</g>
<!-- Node6&#45;&gt;Node5 -->
<g id="edge5" class="edge"><title>Node6&#45;&gt;Node5</title>
<path fill="none" stroke="midnightblue" d="M383,-432.267C383,-419.832 383,-406.253 383,-393.757"/>
<polygon fill="none" stroke="midnightblue" points="379.5,-432.395 383,-442.395 386.5,-432.395 379.5,-432.395"/>
</g>
</g>
</svg>
