<?xml version="1.0" encoding="UTF-8" standalone="no"?>
<!DOCTYPE svg PUBLIC "-//W3C//DTD SVG 1.1//EN"
 "http://www.w3.org/Graphics/SVG/1.1/DTD/svg11.dtd">
<!-- Generated by graphviz version 2.38.0 (20140413.2041)
 -->
<!-- Title: PhysiK::Body Pages: 1 -->
<svg width="257pt" height="909pt"
 viewBox="0.00 0.00 257.18 909.00" xmlns="http://www.w3.org/2000/svg" xmlns:xlink="http://www.w3.org/1999/xlink">
<g id="graph0" class="graph" transform="scale(1 1) rotate(0) translate(4 905)">
<title>PhysiK::Body</title>
<!-- Node1 -->
<g id="node1" class="node"><title>Node1</title>
<polygon fill="#bfbfbf" stroke="black" points="27.6779,-0.5 27.6779,-134.5 143.678,-134.5 143.678,-0.5 27.6779,-0.5"/>
<text text-anchor="middle" x="85.6779" y="-122.5" font-family="Helvetica,sans-Serif" font-size="10.00">PhysiK::Body</text>
<polyline fill="none" stroke="black" points="27.6779,-115.5 143.678,-115.5 "/>
<text text-anchor="start" x="35.6779" y="-103.5" font-family="Helvetica,sans-Serif" font-size="10.00">+ nbTriangles</text>
<text text-anchor="start" x="35.6779" y="-92.5" font-family="Helvetica,sans-Serif" font-size="10.00">+ mass</text>
<polyline fill="none" stroke="black" points="27.6779,-85.5 143.678,-85.5 "/>
<text text-anchor="start" x="35.6779" y="-73.5" font-family="Helvetica,sans-Serif" font-size="10.00">+ Body()</text>
<text text-anchor="start" x="35.6779" y="-62.5" font-family="Helvetica,sans-Serif" font-size="10.00">+ ~Body()</text>
<text text-anchor="start" x="35.6779" y="-51.5" font-family="Helvetica,sans-Serif" font-size="10.00">+ getTriangles()</text>
<text text-anchor="start" x="35.6779" y="-40.5" font-family="Helvetica,sans-Serif" font-size="10.00">+ getTriangles()</text>
<text text-anchor="start" x="35.6779" y="-29.5" font-family="Helvetica,sans-Serif" font-size="10.00">+ computeBarycenter()</text>
<text text-anchor="start" x="35.6779" y="-18.5" font-family="Helvetica,sans-Serif" font-size="10.00">+ getParticlesGroup()</text>
<text text-anchor="start" x="35.6779" y="-7.5" font-family="Helvetica,sans-Serif" font-size="10.00">+ getBarycenter()</text>
</g>
<!-- Node2 -->
<g id="node2" class="node"><title>Node2</title>
<g id="a_node2"><a xlink:href="classPhysiK_1_1PhysicObject.html" target="_top" xlink:title="Internal representation of an object. ">
<polygon fill="none" stroke="black" points="29.1779,-182.5 29.1779,-371.5 142.178,-371.5 142.178,-182.5 29.1779,-182.5"/>
<text text-anchor="middle" x="85.6779" y="-359.5" font-family="Helvetica,sans-Serif" font-size="10.00">PhysiK::PhysicObject</text>
<polyline fill="none" stroke="black" points="29.1779,-352.5 142.178,-352.5 "/>
<text text-anchor="start" x="37.1779" y="-340.5" font-family="Helvetica,sans-Serif" font-size="10.00">+ nbParticles</text>
<text text-anchor="start" x="37.1779" y="-329.5" font-family="Helvetica,sans-Serif" font-size="10.00">+ isKinematic</text>
<text text-anchor="start" x="37.1779" y="-318.5" font-family="Helvetica,sans-Serif" font-size="10.00">&#45; hasBeenAllocated</text>
<polyline fill="none" stroke="black" points="29.1779,-311.5 142.178,-311.5 "/>
<text text-anchor="start" x="37.1779" y="-299.5" font-family="Helvetica,sans-Serif" font-size="10.00">+ getPositions()</text>
<text text-anchor="start" x="37.1779" y="-288.5" font-family="Helvetica,sans-Serif" font-size="10.00">+ getOldPositions()</text>
<text text-anchor="start" x="37.1779" y="-277.5" font-family="Helvetica,sans-Serif" font-size="10.00">+ getDeltaP()</text>
<text text-anchor="start" x="37.1779" y="-266.5" font-family="Helvetica,sans-Serif" font-size="10.00">+ preUpdate()</text>
<text text-anchor="start" x="37.1779" y="-255.5" font-family="Helvetica,sans-Serif" font-size="10.00">+ postUpdate()</text>
<text text-anchor="start" x="37.1779" y="-244.5" font-family="Helvetica,sans-Serif" font-size="10.00">+ ~PhysicObject()</text>
<text text-anchor="start" x="37.1779" y="-233.5" font-family="Helvetica,sans-Serif" font-size="10.00">&#45; PhysicObject()</text>
<text text-anchor="start" x="37.1779" y="-222.5" font-family="Helvetica,sans-Serif" font-size="10.00">&#45; PhysicObject()</text>
<text text-anchor="start" x="37.1779" y="-211.5" font-family="Helvetica,sans-Serif" font-size="10.00">&#45; operator=()</text>
<text text-anchor="start" x="37.1779" y="-200.5" font-family="Helvetica,sans-Serif" font-size="10.00">&#45; PhysicObject()</text>
<text text-anchor="start" x="37.1779" y="-189.5" font-family="Helvetica,sans-Serif" font-size="10.00">&#45; PhysicObject()</text>
</a>
</g>
</g>
<!-- Node2&#45;&gt;Node1 -->
<g id="edge1" class="edge"><title>Node2&#45;&gt;Node1</title>
<path fill="none" stroke="midnightblue" d="M85.6779,-172.043C85.6779,-159.278 85.6779,-146.518 85.6779,-134.534"/>
<polygon fill="none" stroke="midnightblue" points="82.178,-172.267 85.6779,-182.267 89.178,-172.267 82.178,-172.267"/>
</g>
<!-- Node3 -->
<g id="node3" class="node"><title>Node3</title>
<g id="a_node3"><a xlink:href="classPhysiK_1_1vec3.html" target="_top" xlink:title="A vertex. ">
<polygon fill="none" stroke="black" points="20.6779,-557.5 20.6779,-900.5 114.678,-900.5 114.678,-557.5 20.6779,-557.5"/>
<text text-anchor="middle" x="67.6779" y="-888.5" font-family="Helvetica,sans-Serif" font-size="10.00">PhysiK::vec3</text>
<polyline fill="none" stroke="black" points="20.6779,-881.5 114.678,-881.5 "/>
<text text-anchor="start" x="28.6779" y="-869.5" font-family="Helvetica,sans-Serif" font-size="10.00">+ x</text>
<text text-anchor="start" x="28.6779" y="-858.5" font-family="Helvetica,sans-Serif" font-size="10.00">+ y</text>
<text text-anchor="start" x="28.6779" y="-847.5" font-family="Helvetica,sans-Serif" font-size="10.00">+ z</text>
<text text-anchor="start" x="28.6779" y="-836.5" font-family="Helvetica,sans-Serif" font-size="10.00">+ voxelSize</text>
<polyline fill="none" stroke="black" points="20.6779,-829.5 114.678,-829.5 "/>
<text text-anchor="start" x="28.6779" y="-817.5" font-family="Helvetica,sans-Serif" font-size="10.00">+ vec3()</text>
<text text-anchor="start" x="28.6779" y="-806.5" font-family="Helvetica,sans-Serif" font-size="10.00">+ operator()()</text>
<text text-anchor="start" x="28.6779" y="-795.5" font-family="Helvetica,sans-Serif" font-size="10.00">+ operator[]()</text>
<text text-anchor="start" x="28.6779" y="-784.5" font-family="Helvetica,sans-Serif" font-size="10.00">+ operator[]()</text>
<text text-anchor="start" x="28.6779" y="-773.5" font-family="Helvetica,sans-Serif" font-size="10.00">+ operator*()</text>
<text text-anchor="start" x="28.6779" y="-762.5" font-family="Helvetica,sans-Serif" font-size="10.00">+ operator*=()</text>
<text text-anchor="start" x="28.6779" y="-751.5" font-family="Helvetica,sans-Serif" font-size="10.00">+ operator+()</text>
<text text-anchor="start" x="28.6779" y="-740.5" font-family="Helvetica,sans-Serif" font-size="10.00">+ operator+()</text>
<text text-anchor="start" x="28.6779" y="-729.5" font-family="Helvetica,sans-Serif" font-size="10.00">+ operator+=()</text>
<text text-anchor="start" x="28.6779" y="-718.5" font-family="Helvetica,sans-Serif" font-size="10.00">+ operator&#45;=()</text>
<text text-anchor="start" x="28.6779" y="-707.5" font-family="Helvetica,sans-Serif" font-size="10.00">+ operator/()</text>
<text text-anchor="start" x="28.6779" y="-696.5" font-family="Helvetica,sans-Serif" font-size="10.00">+ operator/=()</text>
<text text-anchor="start" x="28.6779" y="-685.5" font-family="Helvetica,sans-Serif" font-size="10.00">+ operator&#45;()</text>
<text text-anchor="start" x="28.6779" y="-674.5" font-family="Helvetica,sans-Serif" font-size="10.00">+ operator==()</text>
<text text-anchor="start" x="28.6779" y="-663.5" font-family="Helvetica,sans-Serif" font-size="10.00">+ operator&#45;()</text>
<text text-anchor="start" x="28.6779" y="-652.5" font-family="Helvetica,sans-Serif" font-size="10.00">+ length()</text>
<text text-anchor="start" x="28.6779" y="-641.5" font-family="Helvetica,sans-Serif" font-size="10.00">+ lengthSquared()</text>
<text text-anchor="start" x="28.6779" y="-630.5" font-family="Helvetica,sans-Serif" font-size="10.00">+ normalize()</text>
<text text-anchor="start" x="28.6779" y="-619.5" font-family="Helvetica,sans-Serif" font-size="10.00">+ cross()</text>
<text text-anchor="start" x="28.6779" y="-608.5" font-family="Helvetica,sans-Serif" font-size="10.00">+ dot()</text>
<text text-anchor="start" x="28.6779" y="-597.5" font-family="Helvetica,sans-Serif" font-size="10.00">+ toVoxel()</text>
<text text-anchor="start" x="28.6779" y="-586.5" font-family="Helvetica,sans-Serif" font-size="10.00">+ toWorld()</text>
<text text-anchor="start" x="28.6779" y="-575.5" font-family="Helvetica,sans-Serif" font-size="10.00">+ center()</text>
<text text-anchor="start" x="28.6779" y="-564.5" font-family="Helvetica,sans-Serif" font-size="10.00">+ print()</text>
</a>
</g>
</g>
<!-- Node3&#45;&gt;Node1 -->
<g id="edge5" class="edge"><title>Node3&#45;&gt;Node1</title>
<path fill="none" stroke="#404040" d="M22.6278,-557.452C1.13712,-448.404 -13.4535,-304.885 19.6779,-182 23.017,-169.615 28.0773,-157.191 33.9406,-145.343"/>
<polygon fill="none" stroke="#404040" points="33.9732,-145.28 33.2028,-138.11 39.5248,-134.642 40.2952,-141.811 33.9732,-145.28"/>
<text text-anchor="middle" x="28.6779" y="-393" font-family="Helvetica,sans-Serif" font-size="10.00"> &#45;barycenter</text>
</g>
<!-- Node3&#45;&gt;Node2 -->
<g id="edge2" class="edge"><title>Node3&#45;&gt;Node2</title>
<path fill="none" stroke="#404040" d="M71.5969,-557.153C72.9173,-512.202 74.5979,-463.765 76.6779,-419 77.206,-407.634 77.8382,-395.758 78.5195,-383.929"/>
<polygon fill="none" stroke="#404040" points="78.5375,-383.622 74.8982,-377.397 79.2449,-371.643 82.8842,-377.868 78.5375,-383.622"/>
<text text-anchor="middle" x="106.678" y="-451" font-family="Helvetica,sans-Serif" font-size="10.00"> &#45;oldPositions</text>
</g>
<!-- Node4 -->
<g id="node4" class="node"><title>Node4</title>
<g id="a_node4"><a xlink:href="classPhysiK_1_1Particle.html" target="_top" xlink:title="The Particle class. ">
<polygon fill="none" stroke="black" points="146.178,-419.5 146.178,-487.5 233.178,-487.5 233.178,-419.5 146.178,-419.5"/>
<text text-anchor="middle" x="189.678" y="-475.5" font-family="Helvetica,sans-Serif" font-size="10.00">PhysiK::Particle</text>
<polyline fill="none" stroke="black" points="146.178,-468.5 233.178,-468.5 "/>
<text text-anchor="start" x="154.178" y="-456.5" font-family="Helvetica,sans-Serif" font-size="10.00">+ omega</text>
<polyline fill="none" stroke="black" points="146.178,-449.5 233.178,-449.5 "/>
<text text-anchor="start" x="154.178" y="-437.5" font-family="Helvetica,sans-Serif" font-size="10.00">+ Particle()</text>
<text text-anchor="start" x="154.178" y="-426.5" font-family="Helvetica,sans-Serif" font-size="10.00">+ Particle()</text>
</a>
</g>
</g>
<!-- Node3&#45;&gt;Node4 -->
<g id="edge4" class="edge"><title>Node3&#45;&gt;Node4</title>
<path fill="none" stroke="#404040" d="M114.846,-622.258C133.98,-579.364 155.03,-532.173 169.917,-498.799"/>
<polygon fill="none" stroke="#404040" points="170.024,-498.559 168.816,-491.45 174.913,-487.6 176.122,-494.709 170.024,-498.559"/>
<text text-anchor="middle" x="190.678" y="-531" font-family="Helvetica,sans-Serif" font-size="10.00"> +pos</text>
<text text-anchor="middle" x="190.678" y="-520" font-family="Helvetica,sans-Serif" font-size="10.00">+velocity</text>
<text text-anchor="middle" x="190.678" y="-509" font-family="Helvetica,sans-Serif" font-size="10.00">+impulsion</text>
</g>
<!-- Node4&#45;&gt;Node2 -->
<g id="edge3" class="edge"><title>Node4&#45;&gt;Node2</title>
<path fill="none" stroke="#404040" d="M169.872,-419.267C163.344,-408.314 155.7,-395.488 147.728,-382.113"/>
<polygon fill="none" stroke="#404040" points="147.725,-382.108 141.217,-379.002 141.581,-371.8 148.089,-374.906 147.725,-382.108"/>
<text text-anchor="middle" x="181.178" y="-393" font-family="Helvetica,sans-Serif" font-size="10.00"> &#45;particles</text>
</g>
<!-- Node5 -->
<g id="node5" class="node"><title>Node5</title>
<g id="a_node5"><a xlink:href="classPhysiK_1_1Triangle.html" target="_top" xlink:title="Contain a set of three vertex offset. ">
<polygon fill="none" stroke="black" points="160.178,-237.5 160.178,-316.5 249.178,-316.5 249.178,-237.5 160.178,-237.5"/>
<text text-anchor="middle" x="204.678" y="-304.5" font-family="Helvetica,sans-Serif" font-size="10.00">PhysiK::Triangle</text>
<polyline fill="none" stroke="black" points="160.178,-297.5 249.178,-297.5 "/>
<text text-anchor="start" x="168.178" y="-285.5" font-family="Helvetica,sans-Serif" font-size="10.00">&#45; VertexOffset</text>
<polyline fill="none" stroke="black" points="160.178,-278.5 249.178,-278.5 "/>
<text text-anchor="start" x="168.178" y="-266.5" font-family="Helvetica,sans-Serif" font-size="10.00">+ Triangle()</text>
<text text-anchor="start" x="168.178" y="-255.5" font-family="Helvetica,sans-Serif" font-size="10.00">+ operator[]()</text>
<text text-anchor="start" x="168.178" y="-244.5" font-family="Helvetica,sans-Serif" font-size="10.00">+ operator[]()</text>
</a>
</g>
</g>
<!-- Node5&#45;&gt;Node1 -->
<g id="edge6" class="edge"><title>Node5&#45;&gt;Node1</title>
<path fill="none" stroke="#404040" d="M182.574,-237.457C167.718,-211.554 147.633,-176.53 129.6,-145.087"/>
<polygon fill="none" stroke="#404040" points="129.544,-144.989 123.089,-141.775 123.574,-134.58 130.029,-137.795 129.544,-144.989"/>
<text text-anchor="middle" x="160.178" y="-156" font-family="Helvetica,sans-Serif" font-size="10.00"> &#45;triangles</text>
</g>
</g>
</svg>
