<?xml version="1.0" encoding="UTF-8" standalone="no"?>
<!DOCTYPE svg PUBLIC "-//W3C//DTD SVG 1.1//EN"
 "http://www.w3.org/Graphics/SVG/1.1/DTD/svg11.dtd">
<!-- Generated by graphviz version 2.38.0 (20140413.2041)
 -->
<!-- Title: Graphical Class Hierarchy Pages: 1 -->
<svg width="300pt" height="230pt"
 viewBox="0.00 0.00 300.00 230.00" xmlns="http://www.w3.org/2000/svg" xmlns:xlink="http://www.w3.org/1999/xlink">
<g id="graph0" class="graph" transform="scale(1 1) rotate(0) translate(4 226)">
<title>Graphical Class Hierarchy</title>
<!-- Node1 -->
<g id="node1" class="node"><title>Node1</title>
<g id="a_node1"><a xlink:href="classPhysiK_1_1Constraint.html" target="_top" xlink:title="Compute the constraint (see 1st report) to apply to the list of vertices. ">
<polygon fill="none" stroke="black" points="0,-95.5 0,-114.5 99,-114.5 99,-95.5 0,-95.5"/>
<text text-anchor="middle" x="49.5" y="-102.5" font-family="Helvetica,sans-Serif" font-size="10.00">PhysiK::Constraint</text>
</a>
</g>
</g>
<!-- Node2 -->
<g id="node2" class="node"><title>Node2</title>
<g id="a_node2"><a xlink:href="classPhysiK_1_1CollisionConstraint.html" target="_top" xlink:title="keep a particle above a plane. eval() is equal to zero only when the particles is above the plane ...">
<polygon fill="none" stroke="black" points="145,-202.5 145,-221.5 282,-221.5 282,-202.5 145,-202.5"/>
<text text-anchor="middle" x="213.5" y="-209.5" font-family="Helvetica,sans-Serif" font-size="10.00">PhysiK::CollisionConstraint</text>
</a>
</g>
</g>
<!-- Node1&#45;&gt;Node2 -->
<g id="edge1" class="edge"><title>Node1&#45;&gt;Node2</title>
<path fill="none" stroke="midnightblue" d="M62.8296,-122.973C77.6176,-143.125 104.29,-175.292 135,-193 141.721,-196.875 149.209,-199.964 156.809,-202.426"/>
<polygon fill="midnightblue" stroke="midnightblue" points="65.5545,-120.766 56.8996,-114.655 59.8547,-124.83 65.5545,-120.766"/>
</g>
<!-- Node3 -->
<g id="node3" class="node"><title>Node3</title>
<g id="a_node3"><a xlink:href="classPhysiK_1_1CollisionParticuleTriangleConstraint.html" target="_top" xlink:title="prevent a triangle and a particle from collision. If the particle size is zero, eval() is equal to ze...">
<polygon fill="none" stroke="black" points="148.5,-153 148.5,-183 278.5,-183 278.5,-153 148.5,-153"/>
<text text-anchor="start" x="156.5" y="-171" font-family="Helvetica,sans-Serif" font-size="10.00">PhysiK::CollisionParticule</text>
<text text-anchor="middle" x="213.5" y="-160" font-family="Helvetica,sans-Serif" font-size="10.00">TriangleConstraint</text>
</a>
</g>
</g>
<!-- Node1&#45;&gt;Node3 -->
<g id="edge2" class="edge"><title>Node1&#45;&gt;Node3</title>
<path fill="none" stroke="midnightblue" d="M79.4755,-118.987C95.6331,-126.543 116.228,-135.777 135,-143 143.972,-146.452 153.646,-149.835 163.016,-152.94"/>
<polygon fill="midnightblue" stroke="midnightblue" points="80.5813,-115.639 70.0444,-114.532 77.5914,-121.968 80.5813,-115.639"/>
</g>
<!-- Node4 -->
<g id="node4" class="node"><title>Node4</title>
<g id="a_node4"><a xlink:href="classPhysiK_1_1DistanceConstraint.html" target="_top" xlink:title="enforce two particles to stay at the same distance. eval() is equal to zero only when the two particl...">
<polygon fill="none" stroke="black" points="144.5,-114.5 144.5,-133.5 282.5,-133.5 282.5,-114.5 144.5,-114.5"/>
<text text-anchor="middle" x="213.5" y="-121.5" font-family="Helvetica,sans-Serif" font-size="10.00">PhysiK::DistanceConstraint</text>
</a>
</g>
</g>
<!-- Node1&#45;&gt;Node4 -->
<g id="edge3" class="edge"><title>Node1&#45;&gt;Node4</title>
<path fill="none" stroke="midnightblue" d="M109.367,-111.904C120.766,-113.241 132.799,-114.652 144.463,-116.02"/>
<polygon fill="midnightblue" stroke="midnightblue" points="109.445,-108.389 99.1053,-110.701 108.63,-115.342 109.445,-108.389"/>
</g>
<!-- Node5 -->
<g id="node5" class="node"><title>Node5</title>
<g id="a_node5"><a xlink:href="classPhysiK_1_1MaxDistanceConstraint.html" target="_top" xlink:title="enforce a maximum distances between two particles. eval() is equal to zero only when the distance is ...">
<polygon fill="none" stroke="black" points="135,-76.5 135,-95.5 292,-95.5 292,-76.5 135,-76.5"/>
<text text-anchor="middle" x="213.5" y="-83.5" font-family="Helvetica,sans-Serif" font-size="10.00">PhysiK::MaxDistanceConstraint</text>
</a>
</g>
</g>
<!-- Node1&#45;&gt;Node5 -->
<g id="edge4" class="edge"><title>Node1&#45;&gt;Node5</title>
<path fill="none" stroke="midnightblue" d="M109.109,-98.126C117.473,-97.1451 126.183,-96.1236 134.842,-95.1081"/>
<polygon fill="midnightblue" stroke="midnightblue" points="108.63,-94.6583 99.1053,-99.2994 109.445,-101.611 108.63,-94.6583"/>
</g>
<!-- Node6 -->
<g id="node6" class="node"><title>Node6</title>
<g id="a_node6"><a xlink:href="classPhysiK_1_1MinDistanceConstraint.html" target="_top" xlink:title="enforce a minimum distance between two particles. eval() is equal to zero only when the distance is g...">
<polygon fill="none" stroke="black" points="136.5,-38.5 136.5,-57.5 290.5,-57.5 290.5,-38.5 136.5,-38.5"/>
<text text-anchor="middle" x="213.5" y="-45.5" font-family="Helvetica,sans-Serif" font-size="10.00">PhysiK::MinDistanceConstraint</text>
</a>
</g>
</g>
<!-- Node1&#45;&gt;Node6 -->
<g id="edge5" class="edge"><title>Node1&#45;&gt;Node6</title>
<path fill="none" stroke="midnightblue" d="M78.6446,-90.7876C94.8348,-83.009 115.729,-73.6334 135,-67 145.348,-63.438 156.69,-60.265 167.427,-57.5802"/>
<polygon fill="midnightblue" stroke="midnightblue" points="76.6785,-87.8526 69.2284,-95.3857 79.75,-94.1427 76.6785,-87.8526"/>
</g>
<!-- Node7 -->
<g id="node7" class="node"><title>Node7</title>
<g id="a_node7"><a xlink:href="classPhysiK_1_1VolumeConstraint.html" target="_top" xlink:title="Keep the sum of all tetraedres added constant. eval() is equal to zero when the volume of the tetraed...">
<polygon fill="none" stroke="black" points="147.5,-0.5 147.5,-19.5 279.5,-19.5 279.5,-0.5 147.5,-0.5"/>
<text text-anchor="middle" x="213.5" y="-7.5" font-family="Helvetica,sans-Serif" font-size="10.00">PhysiK::VolumeConstraint</text>
</a>
</g>
</g>
<!-- Node1&#45;&gt;Node7 -->
<g id="edge6" class="edge"><title>Node1&#45;&gt;Node7</title>
<path fill="none" stroke="midnightblue" d="M65.009,-87.6873C80.5536,-70.2652 106.82,-43.9026 135,-29 142.348,-25.1142 150.508,-22.0062 158.697,-19.5248"/>
<polygon fill="midnightblue" stroke="midnightblue" points="62.1959,-85.5886 58.2779,-95.4324 67.4794,-90.1804 62.1959,-85.5886"/>
</g>
</g>
</svg>
