<?xml version="1.0" encoding="UTF-8" standalone="no"?>
<!DOCTYPE svg PUBLIC "-//W3C//DTD SVG 1.1//EN"
 "http://www.w3.org/Graphics/SVG/1.1/DTD/svg11.dtd">
<!-- Generated by graphviz version 2.38.0 (20140413.2041)
 -->
<!-- Title: Graphical Class Hierarchy Pages: 1 -->
<svg width="270pt" height="66pt"
 viewBox="0.00 0.00 270.00 66.00" xmlns="http://www.w3.org/2000/svg" xmlns:xlink="http://www.w3.org/1999/xlink">
<g id="graph0" class="graph" transform="scale(1 1) rotate(0) translate(4 62)">
<title>Graphical Class Hierarchy</title>
<!-- Node1 -->
<g id="node1" class="node"><title>Node1</title>
<g id="a_node1"><a xlink:href="classPhysiK_1_1PhysicObject.html" target="_top" xlink:title="Internal representation of an object. ">
<polygon fill="none" stroke="black" points="0,-19.5 0,-38.5 113,-38.5 113,-19.5 0,-19.5"/>
<text text-anchor="middle" x="56.5" y="-26.5" font-family="Helvetica,sans-Serif" font-size="10.00">PhysiK::PhysicObject</text>
</a>
</g>
</g>
<!-- Node2 -->
<g id="node2" class="node"><title>Node2</title>
<g id="a_node2"><a xlink:href="classPhysiK_1_1Body.html" target="_top" xlink:title="Add topological informations to a body. ">
<polygon fill="none" stroke="black" points="167,-38.5 167,-57.5 244,-57.5 244,-38.5 167,-38.5"/>
<text text-anchor="middle" x="205.5" y="-45.5" font-family="Helvetica,sans-Serif" font-size="10.00">PhysiK::Body</text>
</a>
</g>
</g>
<!-- Node1&#45;&gt;Node2 -->
<g id="edge1" class="edge"><title>Node1&#45;&gt;Node2</title>
<path fill="none" stroke="midnightblue" d="M123.265,-37.5002C138.126,-39.421 153.414,-41.397 166.662,-43.1093"/>
<polygon fill="midnightblue" stroke="midnightblue" points="123.441,-33.9939 113.074,-36.1831 122.543,-40.9362 123.441,-33.9939"/>
</g>
<!-- Node3 -->
<g id="node3" class="node"><title>Node3</title>
<g id="a_node3"><a xlink:href="classPhysiK_1_1ParticleGroup.html" target="_top" xlink:title="Represents a set of particles that share the same attributes (radius and mass) ">
<polygon fill="none" stroke="black" points="149,-0.5 149,-19.5 262,-19.5 262,-0.5 149,-0.5"/>
<text text-anchor="middle" x="205.5" y="-7.5" font-family="Helvetica,sans-Serif" font-size="10.00">PhysiK::ParticleGroup</text>
</a>
</g>
</g>
<!-- Node1&#45;&gt;Node3 -->
<g id="edge2" class="edge"><title>Node1&#45;&gt;Node3</title>
<path fill="none" stroke="midnightblue" d="M123.078,-20.524C131.681,-19.412 140.43,-18.2812 148.847,-17.1932"/>
<polygon fill="midnightblue" stroke="midnightblue" points="122.543,-17.0638 113.074,-21.8169 123.441,-24.0061 122.543,-17.0638"/>
</g>
</g>
</svg>
